<svg width="617" height="380" viewBox="0 0 617 380" fill="none" xmlns="http://www.w3.org/2000/svg">
<g filter="url(#filter0_d_34_1370)">
<rect x="36" y="36" width="545" height="307.097" rx="24" fill="white"/>
<rect x="36.5" y="36.5" width="544" height="306.097" rx="23.5" stroke="#222222" stroke-opacity="0.05"/>
<path d="M60.9558 69.0221V67.0149H71.5018V69.0221H67.4163V80.2329H65.0412V69.0221H60.9558ZM74.9354 80.433C74.3072 80.433 73.7414 80.3211 73.2379 80.0974C72.7388 79.8693 72.343 79.5337 72.0504 79.0905C71.7621 78.6474 71.618 78.1009 71.618 77.4512C71.618 76.8918 71.7212 76.4293 71.9277 76.0636C72.1343 75.6978 72.4161 75.4052 72.7732 75.1858C73.1304 74.9664 73.5327 74.8007 73.9802 74.6888C74.4319 74.5727 74.8988 74.4888 75.3807 74.4371C75.9616 74.3769 76.4327 74.3231 76.7941 74.2758C77.1556 74.2241 77.418 74.1467 77.5815 74.0434C77.7493 73.9359 77.8333 73.7702 77.8333 73.5465V73.5077C77.8333 73.0215 77.6891 72.645 77.4008 72.3783C77.1125 72.1115 76.6973 71.9781 76.1552 71.9781C75.5829 71.9781 75.129 72.1029 74.7934 72.3524C74.4621 72.602 74.2383 72.8967 74.1221 73.2367L71.9407 72.9269C72.1128 72.3245 72.3967 71.8211 72.7926 71.4166C73.1884 71.0078 73.6725 70.7023 74.2448 70.5001C74.817 70.2936 75.4495 70.1903 76.1423 70.1903C76.6199 70.1903 77.0953 70.2463 77.5686 70.3581C78.0419 70.47 78.4744 70.655 78.8659 70.9132C79.2575 71.167 79.5716 71.5134 79.8082 71.9523C80.0492 72.3912 80.1696 72.9398 80.1696 73.5981V80.2329H77.9236V78.8711H77.8462C77.7042 79.1465 77.5041 79.4046 77.2459 79.6456C76.9921 79.8822 76.6715 80.0737 76.2843 80.22C75.9013 80.362 75.4517 80.433 74.9354 80.433ZM75.542 78.7162C76.011 78.7162 76.4177 78.6237 76.7619 78.4387C77.1061 78.2493 77.3707 77.9998 77.5557 77.69C77.745 77.3802 77.8397 77.0424 77.8397 76.6767V75.5085C77.7666 75.5687 77.6418 75.6247 77.4654 75.6763C77.2933 75.7279 77.0996 75.7731 76.8845 75.8118C76.6694 75.8506 76.4564 75.885 76.2455 75.9151C76.0347 75.9452 75.8518 75.971 75.6969 75.9926C75.3484 76.0399 75.0365 76.1173 74.7611 76.2249C74.4857 76.3325 74.2684 76.4831 74.1092 76.6767C73.95 76.866 73.8704 77.1113 73.8704 77.4125C73.8704 77.8427 74.0275 78.1676 74.3416 78.387C74.6557 78.6065 75.0558 78.7162 75.542 78.7162ZM82.5189 80.2329V70.3194H84.7843V71.9717H84.8876C85.0683 71.3994 85.3781 70.9584 85.817 70.6486C86.2602 70.3345 86.7657 70.1774 87.3337 70.1774C87.4628 70.1774 87.6069 70.1839 87.7661 70.1968C87.9296 70.2054 88.0652 70.2204 88.1727 70.242V72.3912C88.0738 72.3568 87.9167 72.3266 87.7016 72.3008C87.4907 72.2707 87.2864 72.2556 87.0884 72.2556C86.6625 72.2556 86.2795 72.3481 85.9396 72.5332C85.604 72.7139 85.3394 72.9656 85.1458 73.2883C84.9521 73.611 84.8553 73.9832 84.8553 74.4049V80.2329H82.5189ZM93.6281 84.157C92.789 84.157 92.0683 84.043 91.4659 83.8149C90.8636 83.5912 90.3795 83.29 90.0138 82.9114C89.648 82.5327 89.3942 82.1132 89.2522 81.6528L91.3562 81.1429C91.4509 81.3366 91.5886 81.528 91.7693 81.7174C91.95 81.911 92.1931 82.0702 92.4986 82.195C92.8084 82.324 93.1978 82.3886 93.6668 82.3886C94.3294 82.3886 94.878 82.2272 95.3126 81.9045C95.7472 81.5861 95.9644 81.0612 95.9644 80.3297V78.4516H95.8483C95.7278 78.6925 95.5514 78.9399 95.319 79.1938C95.091 79.4477 94.7876 79.6606 94.409 79.8328C94.0347 80.0049 93.5635 80.0909 92.9956 80.0909C92.234 80.0909 91.5434 79.9124 90.9238 79.5552C90.3085 79.1938 89.818 78.656 89.4523 77.9417C89.0908 77.2231 88.9101 76.3239 88.9101 75.2439C88.9101 74.1553 89.0908 73.2367 89.4523 72.488C89.818 71.735 90.3106 71.1649 90.9302 70.7776C91.5498 70.3861 92.2404 70.1903 93.002 70.1903C93.5829 70.1903 94.0605 70.2893 94.4348 70.4872C94.8135 70.6808 95.1147 70.9153 95.3384 71.1907C95.5621 71.4618 95.7321 71.7178 95.8483 71.9587H95.9774V70.3194H98.2815V80.3943C98.2815 81.2419 98.0792 81.9432 97.6748 82.4983C97.2703 83.0534 96.7174 83.4686 96.0161 83.7439C95.3147 84.0193 94.5187 84.157 93.6281 84.157ZM93.6474 78.258C94.1422 78.258 94.5639 78.1375 94.9124 77.8965C95.2609 77.6556 95.5256 77.3092 95.7063 76.8574C95.887 76.4056 95.9774 75.8635 95.9774 75.231C95.9774 74.6071 95.887 74.0606 95.7063 73.5916C95.5299 73.1226 95.2674 72.7591 94.9189 72.5009C94.5747 72.2384 94.1508 72.1072 93.6474 72.1072C93.1268 72.1072 92.6922 72.2427 92.3437 72.5138C91.9952 72.7849 91.7327 73.1571 91.5563 73.6304C91.3799 74.0994 91.2917 74.6329 91.2917 75.231C91.2917 75.8377 91.3799 76.3691 91.5563 76.8251C91.737 77.2769 92.0016 77.6298 92.3501 77.8836C92.703 78.1332 93.1354 78.258 93.6474 78.258ZM105.065 80.4265C104.071 80.4265 103.212 80.22 102.49 79.8069C101.771 79.3896 101.218 78.8001 100.831 78.0385C100.444 77.2726 100.25 76.3712 100.25 75.3342C100.25 74.3145 100.444 73.4195 100.831 72.6493C101.222 71.8748 101.769 71.2725 102.47 70.8422C103.172 70.4076 103.995 70.1903 104.942 70.1903C105.553 70.1903 106.13 70.2893 106.672 70.4872C107.218 70.6808 107.7 70.982 108.118 71.3908C108.539 71.7995 108.87 72.3202 109.111 72.9527C109.352 73.5809 109.473 74.3296 109.473 75.1987V75.9151H101.347V74.3403H107.233C107.229 73.8928 107.132 73.4948 106.943 73.1463C106.754 72.7935 106.489 72.516 106.149 72.3137C105.813 72.1115 105.422 72.0104 104.974 72.0104C104.497 72.0104 104.077 72.1266 103.716 72.3589C103.354 72.5869 103.073 72.8881 102.87 73.2625C102.672 73.6325 102.571 74.0391 102.567 74.4823V75.857C102.567 76.4336 102.672 76.9284 102.883 77.3415C103.094 77.7502 103.389 78.0643 103.767 78.2838C104.146 78.4989 104.589 78.6065 105.097 78.6065C105.437 78.6065 105.745 78.5591 106.02 78.4645C106.295 78.3655 106.534 78.2214 106.736 78.0321C106.939 77.8427 107.091 77.6082 107.195 77.3286L109.376 77.5738C109.238 78.1504 108.976 78.6538 108.589 79.0841C108.206 79.5101 107.715 79.8414 107.117 80.078C106.519 80.3104 105.835 80.4265 105.065 80.4265ZM116.4 70.3194V72.1266H110.701V70.3194H116.4ZM112.108 67.9443H114.444V77.2511C114.444 77.5652 114.491 77.8062 114.586 77.974C114.685 78.1375 114.814 78.2493 114.973 78.3096C115.133 78.3698 115.309 78.3999 115.503 78.3999C115.649 78.3999 115.782 78.3892 115.903 78.3677C116.028 78.3462 116.122 78.3268 116.187 78.3096L116.58 80.1361C116.456 80.1791 116.277 80.2265 116.045 80.2781C115.817 80.3297 115.537 80.3598 115.206 80.3684C114.621 80.3857 114.093 80.2975 113.624 80.1038C113.155 79.9059 112.783 79.6004 112.508 79.1873C112.237 78.7743 112.103 78.258 112.108 77.6384V67.9443ZM122.062 67.0149H124.766L127.999 72.8623H128.128L131.362 67.0149H134.066L129.258 75.302V80.2329H126.87V75.302L122.062 67.0149ZM138.137 80.4265C137.169 80.4265 136.33 80.2135 135.62 79.7876C134.91 79.3616 134.359 78.7657 133.968 77.9998C133.581 77.2339 133.387 76.3389 133.387 75.3149C133.387 74.2908 133.581 73.3937 133.968 72.6235C134.359 71.8533 134.91 71.2553 135.62 70.8293C136.33 70.4033 137.169 70.1903 138.137 70.1903C139.105 70.1903 139.944 70.4033 140.654 70.8293C141.364 71.2553 141.913 71.8533 142.3 72.6235C142.692 73.3937 142.887 74.2908 142.887 75.3149C142.887 76.3389 142.692 77.2339 142.3 77.9998C141.913 78.7657 141.364 79.3616 140.654 79.7876C139.944 80.2135 139.105 80.4265 138.137 80.4265ZM138.15 78.5548C138.675 78.5548 139.114 78.4107 139.467 78.1224C139.82 77.8298 140.082 77.4383 140.254 76.9478C140.431 76.4573 140.519 75.9108 140.519 75.3084C140.519 74.7017 140.431 74.1531 140.254 73.6626C140.082 73.1678 139.82 72.7741 139.467 72.4815C139.114 72.1889 138.675 72.0427 138.15 72.0427C137.612 72.0427 137.165 72.1889 136.808 72.4815C136.455 72.7741 136.19 73.1678 136.014 73.6626C135.842 74.1531 135.756 74.7017 135.756 75.3084C135.756 75.9108 135.842 76.4573 136.014 76.9478C136.19 77.4383 136.455 77.8298 136.808 78.1224C137.165 78.4107 137.612 78.5548 138.15 78.5548ZM151.189 76.0636V70.3194H153.525V80.2329H151.26V78.4709H151.157C150.933 79.026 150.565 79.4799 150.053 79.8328C149.545 80.1856 148.919 80.362 148.175 80.362C147.525 80.362 146.951 80.2179 146.452 79.9296C145.957 79.637 145.57 79.2132 145.29 78.6581C145.01 78.0988 144.87 77.4232 144.87 76.6315V70.3194H147.207V76.2701C147.207 76.8983 147.379 77.3974 147.723 77.7674C148.067 78.1375 148.519 78.3225 149.078 78.3225C149.423 78.3225 149.756 78.2386 150.079 78.0708C150.402 77.903 150.666 77.6534 150.873 77.3221C151.084 76.9865 151.189 76.567 151.189 76.0636ZM155.928 80.2329V70.3194H158.193V71.9717H158.297C158.477 71.3994 158.787 70.9584 159.226 70.6486C159.669 70.3345 160.175 70.1774 160.743 70.1774C160.872 70.1774 161.016 70.1839 161.175 70.1968C161.339 70.2054 161.474 70.2204 161.582 70.242V72.3912C161.483 72.3568 161.326 72.3266 161.111 72.3008C160.9 72.2707 160.695 72.2556 160.497 72.2556C160.071 72.2556 159.689 72.3481 159.349 72.5332C159.013 72.7139 158.748 72.9656 158.555 73.2883C158.361 73.611 158.264 73.9832 158.264 74.4049V80.2329H155.928ZM169.443 80.2329H166.887L171.54 67.0149H174.496L179.156 80.2329H176.6L173.07 69.7256H172.967L169.443 80.2329ZM169.527 75.0503H176.497V76.9736H169.527V75.0503ZM187.113 76.0636V70.3194H189.449V80.2329H187.184V78.4709H187.08C186.857 79.026 186.489 79.4799 185.977 79.8328C185.469 80.1856 184.843 80.362 184.098 80.362C183.449 80.362 182.874 80.2179 182.375 79.9296C181.88 79.637 181.493 79.2132 181.213 78.6581C180.934 78.0988 180.794 77.4232 180.794 76.6315V70.3194H183.13V76.2701C183.13 76.8983 183.302 77.3974 183.647 77.7674C183.991 78.1375 184.443 78.3225 185.002 78.3225C185.346 78.3225 185.68 78.2386 186.002 78.0708C186.325 77.903 186.59 77.6534 186.796 77.3221C187.007 76.9865 187.113 76.567 187.113 76.0636ZM195.53 80.4072C194.751 80.4072 194.054 80.2071 193.439 79.8069C192.824 79.4068 192.338 78.8259 191.981 78.0643C191.623 77.3027 191.445 76.3777 191.445 75.2891C191.445 74.1876 191.626 73.2582 191.987 72.5009C192.353 71.7393 192.845 71.1649 193.465 70.7776C194.085 70.3861 194.775 70.1903 195.537 70.1903C196.118 70.1903 196.595 70.2893 196.97 70.4872C197.344 70.6808 197.641 70.9153 197.86 71.1907C198.08 71.4618 198.25 71.7178 198.37 71.9587H198.467V67.0149H200.81V80.2329H198.512V78.671H198.37C198.25 78.912 198.075 79.168 197.847 79.4391C197.619 79.7058 197.318 79.9339 196.944 80.1232C196.569 80.3125 196.098 80.4072 195.53 80.4072ZM196.182 78.4903C196.677 78.4903 197.099 78.3569 197.447 78.0901C197.796 77.8191 198.06 77.4426 198.241 76.9607C198.422 76.4788 198.512 75.9173 198.512 75.2762C198.512 74.6351 198.422 74.0778 198.241 73.6045C198.065 73.1312 197.802 72.7634 197.454 72.5009C197.109 72.2384 196.686 72.1072 196.182 72.1072C195.662 72.1072 195.227 72.2427 194.878 72.5138C194.53 72.7849 194.267 73.1592 194.091 73.6368C193.915 74.1144 193.826 74.6609 193.826 75.2762C193.826 75.8958 193.915 76.4487 194.091 76.9349C194.272 77.4168 194.536 77.7976 194.885 78.0772C195.238 78.3526 195.67 78.4903 196.182 78.4903ZM203.299 80.2329V70.3194H205.636V80.2329H203.299ZM204.474 68.9124C204.104 68.9124 203.786 68.7898 203.519 68.5445C203.252 68.295 203.119 67.9959 203.119 67.6474C203.119 67.2946 203.252 66.9955 203.519 66.7503C203.786 66.5007 204.104 66.3759 204.474 66.3759C204.848 66.3759 205.167 66.5007 205.429 66.7503C205.696 66.9955 205.829 67.2946 205.829 67.6474C205.829 67.9959 205.696 68.295 205.429 68.5445C205.167 68.7898 204.848 68.9124 204.474 68.9124ZM212.427 80.4265C211.433 80.4265 210.575 80.22 209.852 79.8069C209.133 79.3896 208.58 78.8001 208.193 78.0385C207.806 77.2726 207.612 76.3712 207.612 75.3342C207.612 74.3145 207.806 73.4195 208.193 72.6493C208.585 71.8748 209.131 71.2725 209.833 70.8422C210.534 70.4076 211.358 70.1903 212.305 70.1903C212.916 70.1903 213.492 70.2893 214.034 70.4872C214.581 70.6808 215.063 70.982 215.48 71.3908C215.902 71.7995 216.233 72.3202 216.474 72.9527C216.715 73.5809 216.835 74.3296 216.835 75.1987V75.9151H208.71V74.3403H214.596C214.591 73.8928 214.495 73.4948 214.305 73.1463C214.116 72.7935 213.851 72.516 213.511 72.3137C213.176 72.1115 212.784 72.0104 212.337 72.0104C211.859 72.0104 211.44 72.1266 211.078 72.3589C210.717 72.5869 210.435 72.8881 210.233 73.2625C210.035 73.6325 209.934 74.0391 209.929 74.4823V75.857C209.929 76.4336 210.035 76.9284 210.246 77.3415C210.456 77.7502 210.751 78.0643 211.13 78.2838C211.509 78.4989 211.952 78.6065 212.459 78.6065C212.799 78.6065 213.107 78.5591 213.382 78.4645C213.658 78.3655 213.897 78.2214 214.099 78.0321C214.301 77.8427 214.454 77.6082 214.557 77.3286L216.738 77.5738C216.601 78.1504 216.338 78.6538 215.951 79.0841C215.568 79.5101 215.078 79.8414 214.48 80.078C213.881 80.3104 213.197 80.4265 212.427 80.4265ZM221.148 74.4242V80.2329H218.812V70.3194H221.045V72.0039H221.161C221.389 71.4489 221.753 71.0078 222.252 70.6808C222.755 70.3538 223.377 70.1903 224.117 70.1903C224.801 70.1903 225.397 70.3366 225.905 70.6292C226.417 70.9218 226.813 71.3456 227.092 71.9007C227.376 72.4557 227.516 73.1291 227.512 73.9208V80.2329H225.176V74.2822C225.176 73.6196 225.004 73.1011 224.659 72.7268C224.319 72.3524 223.848 72.1653 223.246 72.1653C222.837 72.1653 222.473 72.2556 222.155 72.4364C221.841 72.6128 221.594 72.8688 221.413 73.2044C221.236 73.54 221.148 73.9466 221.148 74.4242ZM234.211 80.4265C233.222 80.4265 232.372 80.2092 231.662 79.7747C230.956 79.3401 230.412 78.7399 230.029 77.974C229.65 77.2038 229.461 76.3174 229.461 75.3149C229.461 74.308 229.655 73.4195 230.042 72.6493C230.429 71.8748 230.976 71.2725 231.681 70.8422C232.391 70.4076 233.23 70.1903 234.198 70.1903C235.003 70.1903 235.715 70.3388 236.335 70.6357C236.959 70.9282 237.456 71.3435 237.826 71.8813C238.196 72.4148 238.407 73.0387 238.458 73.753H236.225C236.135 73.2754 235.92 72.8774 235.58 72.559C235.244 72.2363 234.794 72.0749 234.231 72.0749C233.753 72.0749 233.334 72.204 232.972 72.4622C232.611 72.716 232.329 73.0818 232.127 73.5594C231.929 74.037 231.83 74.6092 231.83 75.2762C231.83 75.9517 231.929 76.5326 232.127 77.0188C232.325 77.5007 232.602 77.8729 232.959 78.1353C233.321 78.3935 233.745 78.5226 234.231 78.5226C234.575 78.5226 234.883 78.458 235.154 78.3289C235.429 78.1956 235.659 78.0041 235.844 77.7545C236.029 77.505 236.156 77.2016 236.225 76.8445H238.458C238.402 77.5459 238.196 78.1676 237.839 78.7097C237.481 79.2476 236.995 79.6693 236.38 79.9747C235.765 80.2759 235.042 80.4265 234.211 80.4265ZM244.765 80.4265C243.772 80.4265 242.913 80.22 242.19 79.8069C241.472 79.3896 240.919 78.8001 240.532 78.0385C240.144 77.2726 239.951 76.3712 239.951 75.3342C239.951 74.3145 240.144 73.4195 240.532 72.6493C240.923 71.8748 241.47 71.2725 242.171 70.8422C242.872 70.4076 243.696 70.1903 244.643 70.1903C245.254 70.1903 245.83 70.2893 246.373 70.4872C246.919 70.6808 247.401 70.982 247.818 71.3908C248.24 71.7995 248.571 72.3202 248.812 72.9527C249.053 73.5809 249.174 74.3296 249.174 75.1987V75.9151H241.048V74.3403H246.934C246.93 73.8928 246.833 73.4948 246.644 73.1463C246.454 72.7935 246.19 72.516 245.85 72.3137C245.514 72.1115 245.123 72.0104 244.675 72.0104C244.197 72.0104 243.778 72.1266 243.417 72.3589C243.055 72.5869 242.773 72.8881 242.571 73.2625C242.373 73.6325 242.272 74.0391 242.268 74.4823V75.857C242.268 76.4336 242.373 76.9284 242.584 77.3415C242.795 77.7502 243.09 78.0643 243.468 78.2838C243.847 78.4989 244.29 78.6065 244.798 78.6065C245.138 78.6065 245.445 78.5591 245.721 78.4645C245.996 78.3655 246.235 78.2214 246.437 78.0321C246.639 77.8427 246.792 77.6082 246.895 77.3286L249.077 77.5738C248.939 78.1504 248.677 78.6538 248.289 79.0841C247.906 79.5101 247.416 79.8414 246.818 80.078C246.22 80.3104 245.536 80.4265 244.765 80.4265Z" fill="#26282F" style="mix-blend-mode:plus-darker"/>
<path d="M68.3134 109.596V118.408H67.0915L62.6123 111.945H62.5306V118.408H61.201V109.596H62.4316L66.9151 116.067H66.9968V109.596H68.3134ZM74.3362 115.667V111.799H75.627V118.408H74.362V117.263H74.2932C74.1411 117.616 73.8973 117.91 73.5617 118.145C73.229 118.378 72.8145 118.494 72.3182 118.494C71.8937 118.494 71.5179 118.401 71.1909 118.214C70.8668 118.025 70.6115 117.745 70.425 117.375C70.2414 117.005 70.1496 116.547 70.1496 116.002V111.799H71.4362V115.848C71.4362 116.298 71.5609 116.657 71.8105 116.923C72.0601 117.19 72.3842 117.323 72.7829 117.323C73.0239 117.323 73.2634 117.263 73.5015 117.143C73.7424 117.022 73.9418 116.84 74.0996 116.596C74.2602 116.352 74.3391 116.043 74.3362 115.667ZM77.3556 118.408V111.799H78.5905V112.874H78.6723C78.81 112.51 79.0352 112.226 79.3478 112.022C79.6605 111.816 80.0348 111.713 80.4708 111.713C80.9126 111.713 81.2826 111.816 81.5809 112.022C81.8821 112.229 82.1044 112.513 82.2479 112.874H82.3167C82.4745 112.522 82.7255 112.24 83.0697 112.031C83.4139 111.819 83.8241 111.713 84.3003 111.713C84.8998 111.713 85.3889 111.901 85.7675 112.276C86.149 112.652 86.3398 113.219 86.3398 113.976V118.408H85.0532V114.096C85.0532 113.649 84.9313 113.325 84.6875 113.124C84.4437 112.923 84.1525 112.823 83.8141 112.823C83.3953 112.823 83.0697 112.952 82.8373 113.21C82.605 113.465 82.4888 113.794 82.4888 114.195V118.408H81.2066V114.015C81.2066 113.656 81.0947 113.368 80.871 113.15C80.6472 112.932 80.3561 112.823 79.9975 112.823C79.7537 112.823 79.5285 112.887 79.322 113.016C79.1183 113.143 78.9534 113.319 78.8272 113.546C78.7038 113.772 78.6422 114.035 78.6422 114.333V118.408H77.3556ZM88.1673 118.408V109.596H89.4539V112.87H89.5313C89.6059 112.732 89.7135 112.573 89.854 112.392C89.9946 112.212 90.1896 112.054 90.4392 111.919C90.6888 111.782 91.0186 111.713 91.4288 111.713C91.9624 111.713 92.4385 111.847 92.8573 112.117C93.2761 112.387 93.6046 112.775 93.8427 113.283C94.0836 113.791 94.2041 114.402 94.2041 115.116C94.2041 115.83 94.085 116.443 93.847 116.953C93.6089 117.461 93.2819 117.853 92.8659 118.128C92.45 118.401 91.9753 118.537 91.4417 118.537C91.0401 118.537 90.7117 118.469 90.4564 118.335C90.204 118.2 90.0061 118.042 89.8626 117.861C89.7192 117.681 89.6088 117.52 89.5313 117.379H89.4237V118.408H88.1673ZM89.428 115.103C89.428 115.568 89.4955 115.975 89.6303 116.325C89.7651 116.675 89.9602 116.949 90.2155 117.147C90.4707 117.342 90.7834 117.44 91.1534 117.44C91.5378 117.44 91.8591 117.338 92.1173 117.134C92.3754 116.928 92.5705 116.648 92.7024 116.295C92.8373 115.942 92.9047 115.545 92.9047 115.103C92.9047 114.667 92.8387 114.276 92.7067 113.929C92.5777 113.581 92.3826 113.308 92.1216 113.107C91.8634 112.906 91.5407 112.806 91.1534 112.806C90.7805 112.806 90.465 112.902 90.2068 113.094C89.9515 113.286 89.7579 113.554 89.626 113.898C89.494 114.243 89.428 114.644 89.428 115.103ZM98.4971 118.541C97.846 118.541 97.2852 118.402 96.8148 118.124C96.3472 117.843 95.9858 117.448 95.7305 116.94C95.4781 116.43 95.3518 115.832 95.3518 115.146C95.3518 114.469 95.4781 113.873 95.7305 113.356C95.9858 112.84 96.3415 112.437 96.7976 112.147C97.2565 111.858 97.7929 111.713 98.4068 111.713C98.7797 111.713 99.1411 111.774 99.4911 111.898C99.841 112.021 100.155 112.215 100.433 112.479C100.712 112.742 100.931 113.085 101.092 113.507C101.252 113.926 101.333 114.435 101.333 115.034V115.49H96.079V114.527H100.072C100.072 114.188 100.003 113.888 99.8654 113.627C99.7277 113.363 99.5341 113.156 99.2845 113.003C99.0379 112.851 98.7481 112.775 98.4154 112.775C98.054 112.775 97.7384 112.864 97.4688 113.042C97.202 113.217 96.9955 113.447 96.8492 113.731C96.7058 114.012 96.6341 114.317 96.6341 114.647V115.4C96.6341 115.842 96.7115 116.218 96.8664 116.527C97.0242 116.837 97.2436 117.074 97.5247 117.237C97.8058 117.398 98.1343 117.478 98.5101 117.478C98.7539 117.478 98.9762 117.444 99.177 117.375C99.3778 117.303 99.5513 117.197 99.6976 117.057C99.8439 116.916 99.9558 116.743 100.033 116.536L101.251 116.755C101.153 117.114 100.978 117.428 100.726 117.698C100.476 117.965 100.162 118.172 99.7837 118.322C99.4079 118.468 98.979 118.541 98.4971 118.541ZM102.76 118.408V111.799H104.004V112.849H104.072C104.193 112.493 104.405 112.213 104.709 112.01C105.016 111.803 105.363 111.7 105.75 111.7C105.831 111.7 105.925 111.703 106.034 111.708C106.146 111.714 106.234 111.721 106.297 111.73V112.96C106.245 112.946 106.154 112.93 106.022 112.913C105.89 112.893 105.758 112.883 105.626 112.883C105.322 112.883 105.051 112.948 104.812 113.077C104.577 113.203 104.391 113.379 104.253 113.606C104.115 113.83 104.047 114.085 104.047 114.372V118.408H102.76ZM113.401 118.541C112.781 118.541 112.24 118.399 111.779 118.115C111.317 117.831 110.958 117.434 110.703 116.923C110.448 116.413 110.32 115.816 110.32 115.133C110.32 114.448 110.448 113.848 110.703 113.335C110.958 112.821 111.317 112.423 111.779 112.139C112.24 111.855 112.781 111.713 113.401 111.713C114.02 111.713 114.561 111.855 115.023 112.139C115.485 112.423 115.843 112.821 116.099 113.335C116.354 113.848 116.482 114.448 116.482 115.133C116.482 115.816 116.354 116.413 116.099 116.923C115.843 117.434 115.485 117.831 115.023 118.115C114.561 118.399 114.02 118.541 113.401 118.541ZM113.405 117.461C113.807 117.461 114.139 117.355 114.403 117.143C114.667 116.93 114.862 116.648 114.988 116.295C115.118 115.942 115.182 115.554 115.182 115.129C115.182 114.707 115.118 114.32 114.988 113.967C114.862 113.612 114.667 113.326 114.403 113.111C114.139 112.896 113.807 112.788 113.405 112.788C113.001 112.788 112.665 112.896 112.398 113.111C112.134 113.326 111.938 113.612 111.809 113.967C111.683 114.32 111.619 114.707 111.619 115.129C111.619 115.554 111.683 115.942 111.809 116.295C111.938 116.648 112.134 116.93 112.398 117.143C112.665 117.355 113.001 117.461 113.405 117.461ZM121.063 111.799V112.831H117.328V111.799H121.063ZM118.352 118.408V111.033C118.352 110.62 118.442 110.277 118.623 110.004C118.804 109.729 119.043 109.524 119.342 109.389C119.64 109.251 119.964 109.183 120.314 109.183C120.572 109.183 120.793 109.204 120.977 109.247C121.16 109.287 121.297 109.325 121.386 109.359L121.084 110.4C121.024 110.383 120.947 110.363 120.852 110.34C120.757 110.314 120.643 110.301 120.508 110.301C120.195 110.301 119.971 110.379 119.837 110.534C119.705 110.689 119.639 110.912 119.639 111.205V118.408H118.352ZM125.7 118.408V109.596H128.841C129.524 109.596 130.09 109.713 130.541 109.949C130.994 110.184 131.332 110.509 131.556 110.925C131.78 111.338 131.892 111.816 131.892 112.358C131.892 112.897 131.778 113.372 131.552 113.782C131.328 114.19 130.99 114.507 130.536 114.733C130.086 114.96 129.52 115.073 128.837 115.073H126.457V113.929H128.716C129.147 113.929 129.497 113.867 129.766 113.744C130.039 113.62 130.238 113.441 130.364 113.206C130.49 112.97 130.554 112.688 130.554 112.358C130.554 112.025 130.489 111.737 130.36 111.493C130.234 111.249 130.034 111.063 129.762 110.934C129.492 110.802 129.138 110.736 128.699 110.736H127.03V118.408H125.7ZM130.05 114.432L132.227 118.408H130.713L128.579 114.432H130.05ZM136.172 118.541C135.521 118.541 134.96 118.402 134.49 118.124C134.022 117.843 133.661 117.448 133.405 116.94C133.153 116.43 133.027 115.832 133.027 115.146C133.027 114.469 133.153 113.873 133.405 113.356C133.661 112.84 134.016 112.437 134.472 112.147C134.931 111.858 135.468 111.713 136.082 111.713C136.454 111.713 136.816 111.774 137.166 111.898C137.516 112.021 137.83 112.215 138.108 112.479C138.386 112.742 138.606 113.085 138.766 113.507C138.927 113.926 139.007 114.435 139.007 115.034V115.49H133.754V114.527H137.747C137.747 114.188 137.678 113.888 137.54 113.627C137.402 113.363 137.209 113.156 136.959 113.003C136.713 112.851 136.423 112.775 136.09 112.775C135.729 112.775 135.413 112.864 135.144 113.042C134.877 113.217 134.67 113.447 134.524 113.731C134.381 114.012 134.309 114.317 134.309 114.647V115.4C134.309 115.842 134.386 116.218 134.541 116.527C134.699 116.837 134.918 117.074 135.199 117.237C135.481 117.398 135.809 117.478 136.185 117.478C136.429 117.478 136.651 117.444 136.852 117.375C137.053 117.303 137.226 117.197 137.372 117.057C137.519 116.916 137.631 116.743 137.708 116.536L138.926 116.755C138.828 117.114 138.653 117.428 138.401 117.698C138.151 117.965 137.837 118.172 137.458 118.322C137.083 118.468 136.654 118.541 136.172 118.541ZM145.899 111.799L143.503 118.408H142.126L139.725 111.799H141.106L142.78 116.885H142.849L144.518 111.799H145.899ZM147.108 118.408V111.799H148.395V118.408H147.108ZM147.758 110.779C147.534 110.779 147.342 110.704 147.182 110.555C147.024 110.403 146.945 110.222 146.945 110.013C146.945 109.801 147.024 109.62 147.182 109.471C147.342 109.319 147.534 109.243 147.758 109.243C147.982 109.243 148.173 109.319 148.33 109.471C148.491 109.62 148.571 109.801 148.571 110.013C148.571 110.222 148.491 110.403 148.33 110.555C148.173 110.704 147.982 110.779 147.758 110.779ZM152.974 118.541C152.323 118.541 151.762 118.402 151.292 118.124C150.824 117.843 150.463 117.448 150.207 116.94C149.955 116.43 149.829 115.832 149.829 115.146C149.829 114.469 149.955 113.873 150.207 113.356C150.463 112.84 150.818 112.437 151.274 112.147C151.733 111.858 152.27 111.713 152.884 111.713C153.257 111.713 153.618 111.774 153.968 111.898C154.318 112.021 154.632 112.215 154.91 112.479C155.189 112.742 155.408 113.085 155.569 113.507C155.729 113.926 155.81 114.435 155.81 115.034V115.49H150.556V114.527H154.549C154.549 114.188 154.48 113.888 154.342 113.627C154.205 113.363 154.011 113.156 153.761 113.003C153.515 112.851 153.225 112.775 152.892 112.775C152.531 112.775 152.215 112.864 151.946 113.042C151.679 113.217 151.472 113.447 151.326 113.731C151.183 114.012 151.111 114.317 151.111 114.647V115.4C151.111 115.842 151.188 116.218 151.343 116.527C151.501 116.837 151.721 117.074 152.002 117.237C152.283 117.398 152.611 117.478 152.987 117.478C153.231 117.478 153.453 117.444 153.654 117.375C153.855 117.303 154.028 117.197 154.175 117.057C154.321 116.916 154.433 116.743 154.51 116.536L155.728 116.755C155.63 117.114 155.455 117.428 155.203 117.698C154.953 117.965 154.639 118.172 154.261 118.322C153.885 118.468 153.456 118.541 152.974 118.541ZM158.658 118.408L156.713 111.799H158.043L159.338 116.652H159.402L160.702 111.799H162.031L163.322 116.631H163.387L164.673 111.799H166.003L164.062 118.408H162.75L161.407 113.636H161.308L159.966 118.408H158.658ZM169.871 118.541C169.22 118.541 168.659 118.402 168.189 118.124C167.721 117.843 167.36 117.448 167.104 116.94C166.852 116.43 166.726 115.832 166.726 115.146C166.726 114.469 166.852 113.873 167.104 113.356C167.36 112.84 167.715 112.437 168.171 112.147C168.63 111.858 169.167 111.713 169.781 111.713C170.153 111.713 170.515 111.774 170.865 111.898C171.215 112.021 171.529 112.215 171.807 112.479C172.085 112.742 172.305 113.085 172.465 113.507C172.626 113.926 172.706 114.435 172.706 115.034V115.49H167.453V114.527H171.446C171.446 114.188 171.377 113.888 171.239 113.627C171.102 113.363 170.908 113.156 170.658 113.003C170.412 112.851 170.122 112.775 169.789 112.775C169.428 112.775 169.112 112.864 168.843 113.042C168.576 113.217 168.369 113.447 168.223 113.731C168.08 114.012 168.008 114.317 168.008 114.647V115.4C168.008 115.842 168.085 116.218 168.24 116.527C168.398 116.837 168.617 117.074 168.899 117.237C169.18 117.398 169.508 117.478 169.884 117.478C170.128 117.478 170.35 117.444 170.551 117.375C170.752 117.303 170.925 117.197 171.071 117.057C171.218 116.916 171.33 116.743 171.407 116.536L172.625 116.755C172.527 117.114 172.352 117.428 172.1 117.698C171.85 117.965 171.536 118.172 171.157 118.322C170.782 118.468 170.353 118.541 169.871 118.541ZM174.134 118.408V111.799H175.377V112.849H175.446C175.567 112.493 175.779 112.213 176.083 112.01C176.39 111.803 176.737 111.7 177.124 111.7C177.205 111.7 177.299 111.703 177.408 111.708C177.52 111.714 177.608 111.721 177.671 111.73V112.96C177.619 112.946 177.527 112.93 177.395 112.913C177.263 112.893 177.131 112.883 176.999 112.883C176.695 112.883 176.424 112.948 176.186 113.077C175.951 113.203 175.765 113.379 175.627 113.606C175.489 113.83 175.42 114.085 175.42 114.372V118.408H174.134ZM183.736 113.412L182.57 113.619C182.522 113.47 182.444 113.328 182.338 113.193C182.235 113.058 182.094 112.948 181.916 112.861C181.739 112.775 181.516 112.732 181.25 112.732C180.885 112.732 180.581 112.814 180.337 112.978C180.094 113.138 179.972 113.346 179.972 113.602C179.972 113.822 180.053 114 180.217 114.135C180.38 114.27 180.644 114.38 181.009 114.466L182.058 114.707C182.667 114.848 183.12 115.064 183.418 115.357C183.716 115.65 183.866 116.03 183.866 116.497C183.866 116.893 183.751 117.246 183.521 117.556C183.295 117.863 182.978 118.104 182.57 118.279C182.166 118.454 181.697 118.541 181.163 118.541C180.423 118.541 179.82 118.383 179.352 118.068C178.884 117.749 178.598 117.298 178.491 116.712L179.735 116.523C179.812 116.847 179.972 117.093 180.213 117.259C180.454 117.422 180.768 117.504 181.155 117.504C181.577 117.504 181.914 117.417 182.166 117.242C182.418 117.064 182.545 116.847 182.545 116.592C182.545 116.385 182.467 116.212 182.312 116.071C182.16 115.931 181.926 115.825 181.611 115.753L180.492 115.508C179.876 115.367 179.419 115.143 179.124 114.836C178.831 114.53 178.685 114.141 178.685 113.67C178.685 113.28 178.794 112.939 179.012 112.646C179.23 112.354 179.531 112.126 179.916 111.962C180.3 111.796 180.74 111.713 181.237 111.713C181.951 111.713 182.513 111.868 182.923 112.177C183.333 112.484 183.605 112.896 183.736 113.412Z" fill="#6D7486" style="mix-blend-mode:plus-darker"/>
<g filter="url(#filter1_dddd_34_1370)">
<path d="M60.2329 138.553C60.2329 135.207 62.9453 132.495 66.2912 132.495H550.709C554.055 132.495 556.767 135.207 556.767 138.553V156.728C556.767 160.074 554.055 162.786 550.709 162.786H66.2912C62.9453 162.786 60.2329 160.074 60.2329 156.728V138.553Z" fill="white"/>
<path d="M66.2912 132.874H550.709C553.845 132.874 556.388 135.417 556.388 138.553V156.728C556.388 159.865 553.845 162.408 550.709 162.408H66.2912C63.1544 162.408 60.6116 159.865 60.6116 156.728V138.553C60.6116 135.417 63.1544 132.874 66.2912 132.874Z" stroke="#222222" stroke-opacity="0.1" stroke-width="0.757282"/>
<path d="M73.2618 151.641V150.866L76.1704 147.682C76.5118 147.309 76.7929 146.985 77.0138 146.71C77.2346 146.432 77.3982 146.171 77.5043 145.927C77.6133 145.68 77.6678 145.422 77.6678 145.152C77.6678 144.843 77.5932 144.574 77.444 144.348C77.2978 144.121 77.097 143.946 76.8417 143.823C76.5864 143.699 76.2995 143.638 75.9811 143.638C75.6426 143.638 75.3472 143.708 75.0948 143.849C74.8452 143.986 74.6516 144.18 74.5139 144.429C74.3791 144.679 74.3117 144.972 74.3117 145.307H73.2962C73.2962 144.791 73.4153 144.338 73.6533 143.948C73.8914 143.557 74.2156 143.253 74.6258 143.035C75.0388 142.817 75.5021 142.708 76.0155 142.708C76.5319 142.708 76.9894 142.817 77.3881 143.035C77.7868 143.253 78.0995 143.547 78.3261 143.917C78.5527 144.287 78.666 144.699 78.666 145.152C78.666 145.476 78.6072 145.793 78.4896 146.103C78.3749 146.41 78.1741 146.753 77.8872 147.132C77.6033 147.507 77.2088 147.966 76.704 148.508L74.7247 150.625V150.694H78.8209V151.641H73.2618ZM83.4722 151.761C82.8239 151.761 82.2717 151.585 81.8156 151.232C81.3595 150.876 81.011 150.362 80.7701 149.687C80.5291 149.01 80.4086 148.193 80.4086 147.235C80.4086 146.283 80.5291 145.469 80.7701 144.795C81.0139 144.118 81.3638 143.602 81.8199 143.246C82.2789 142.888 82.8296 142.708 83.4722 142.708C84.1147 142.708 84.664 142.888 85.1201 143.246C85.5791 143.602 85.929 144.118 86.17 144.795C86.4138 145.469 86.5357 146.283 86.5357 147.235C86.5357 148.193 86.4153 149.01 86.1743 149.687C85.9333 150.362 85.5848 150.876 85.1287 151.232C84.6726 151.585 84.1205 151.761 83.4722 151.761ZM83.4722 150.815C84.1147 150.815 84.6138 150.505 84.9695 149.885C85.3252 149.266 85.5031 148.382 85.5031 147.235C85.5031 146.472 85.4213 145.822 85.2578 145.286C85.0972 144.749 84.8648 144.341 84.5608 144.059C84.2596 143.778 83.8967 143.638 83.4722 143.638C82.8354 143.638 82.3377 143.952 81.9791 144.58C81.6206 145.205 81.4413 146.09 81.4413 147.235C81.4413 147.998 81.5216 148.646 81.6822 149.18C81.8429 149.713 82.0738 150.119 82.375 150.397C82.679 150.676 83.0448 150.815 83.4722 150.815Z" fill="#6D7486" style="mix-blend-mode:plus-darker"/>
</g>
<path d="M61.9454 193.961H60.5341L63.7052 185.149H65.2413L68.4124 193.961H67.0011L64.5098 186.75H64.441L61.9454 193.961ZM62.182 190.51H66.7602V191.629H62.182V190.51ZM72.2461 196.577C71.7212 196.577 71.2694 196.508 70.8908 196.371C70.515 196.233 70.2081 196.051 69.97 195.824C69.7319 195.598 69.5541 195.35 69.4365 195.08L70.5423 194.624C70.6197 194.75 70.723 194.883 70.8521 195.024C70.984 195.167 71.1619 195.289 71.3856 195.39C71.6122 195.49 71.9034 195.54 72.2591 195.54C72.7467 195.54 73.1497 195.421 73.4681 195.183C73.7865 194.948 73.9457 194.572 73.9457 194.056V192.756H73.864C73.7865 192.897 73.6747 193.053 73.5284 193.225C73.3849 193.398 73.187 193.547 72.9346 193.673C72.6822 193.799 72.3537 193.862 71.9493 193.862C71.4272 193.862 70.9568 193.74 70.538 193.496C70.122 193.25 69.7922 192.887 69.5483 192.408C69.3074 191.926 69.1869 191.334 69.1869 190.631C69.1869 189.928 69.3059 189.326 69.544 188.824C69.785 188.322 70.1149 187.937 70.5337 187.671C70.9525 187.401 71.4272 187.266 71.9579 187.266C72.3681 187.266 72.6994 187.335 72.9518 187.473C73.2042 187.607 73.4007 187.765 73.5413 187.946C73.6847 188.127 73.7951 188.286 73.8726 188.424H73.9672V187.352H75.2279V194.107C75.2279 194.675 75.096 195.142 74.8321 195.506C74.5682 195.87 74.2111 196.14 73.7607 196.315C73.3132 196.49 72.8084 196.577 72.2461 196.577ZM72.2332 192.795C72.6033 192.795 72.9159 192.709 73.1712 192.537C73.4294 192.362 73.6245 192.112 73.7564 191.788C73.8912 191.461 73.9586 191.07 73.9586 190.614C73.9586 190.169 73.8927 189.777 73.7607 189.439C73.6288 189.101 73.4351 188.837 73.1798 188.647C72.9245 188.455 72.609 188.359 72.2332 188.359C71.846 188.359 71.5233 188.459 71.2651 188.66C71.007 188.858 70.8119 189.128 70.68 189.469C70.5509 189.81 70.4863 190.192 70.4863 190.614C70.4863 191.047 70.5523 191.427 70.6843 191.754C70.8162 192.081 71.0113 192.336 71.2694 192.52C71.5305 192.703 71.8517 192.795 72.2332 192.795ZM79.8018 194.095C79.1506 194.095 78.5898 193.955 78.1194 193.677C77.6518 193.396 77.2904 193.002 77.0351 192.494C76.7827 191.983 76.6565 191.385 76.6565 190.7C76.6565 190.023 76.7827 189.426 77.0351 188.91C77.2904 188.393 77.6461 187.99 78.1022 187.701C78.5611 187.411 79.0975 187.266 79.7114 187.266C80.0843 187.266 80.4457 187.328 80.7957 187.451C81.1456 187.574 81.4597 187.768 81.738 188.032C82.0162 188.296 82.2357 188.639 82.3963 189.06C82.5569 189.479 82.6373 189.988 82.6373 190.588V191.044H77.3836V190.08H81.3766C81.3766 189.742 81.3077 189.442 81.17 189.181C81.0323 188.917 80.8387 188.709 80.5892 188.557C80.3425 188.405 80.0527 188.329 79.72 188.329C79.3586 188.329 79.043 188.418 78.7734 188.596C78.5066 188.771 78.3001 189 78.1538 189.284C78.0104 189.565 77.9387 189.871 77.9387 190.201V190.954C77.9387 191.395 78.0161 191.771 78.171 192.081C78.3288 192.391 78.5482 192.627 78.8293 192.791C79.1104 192.951 79.4389 193.032 79.8147 193.032C80.0585 193.032 80.2808 192.997 80.4816 192.929C80.6824 192.857 80.8559 192.751 81.0022 192.61C81.1485 192.47 81.2604 192.296 81.3378 192.089L82.5555 192.309C82.458 192.667 82.283 192.982 82.0306 193.251C81.781 193.518 81.4669 193.726 81.0883 193.875C80.7125 194.021 80.2837 194.095 79.8018 194.095ZM87.3746 193.961V185.149H90.5156C91.1983 185.149 91.7648 185.267 92.2151 185.502C92.6684 185.737 93.0069 186.063 93.2306 186.479C93.4543 186.892 93.5662 187.369 93.5662 187.912C93.5662 188.451 93.4529 188.926 93.2263 189.336C93.0025 189.743 92.6641 190.06 92.2108 190.287C91.7605 190.513 91.194 190.627 90.5113 190.627H88.1319V189.482H90.3908C90.8211 189.482 91.171 189.42 91.4407 189.297C91.7132 189.174 91.9125 188.994 92.0387 188.759C92.1649 188.524 92.2281 188.241 92.2281 187.912C92.2281 187.579 92.1635 187.291 92.0344 187.047C91.9082 186.803 91.7089 186.616 91.4364 186.487C91.1667 186.355 90.8125 186.289 90.3736 186.289H88.7041V193.961H87.3746ZM91.7246 189.985L93.9018 193.961H92.3873L90.2531 189.985H91.7246ZM97.0041 194.107C96.5853 194.107 96.2067 194.03 95.8682 193.875C95.5297 193.717 95.2615 193.489 95.0636 193.191C94.8685 192.893 94.771 192.527 94.771 192.094C94.771 191.721 94.8427 191.414 94.9861 191.173C95.1295 190.932 95.3232 190.741 95.567 190.601C95.8108 190.46 96.0833 190.354 96.3845 190.282C96.6857 190.211 96.9926 190.156 97.3053 190.119C97.7011 190.073 98.0224 190.036 98.2691 190.007C98.5158 189.975 98.6951 189.925 98.8069 189.856C98.9188 189.788 98.9747 189.676 98.9747 189.521V189.491C98.9747 189.115 98.8686 188.824 98.6563 188.617C98.4469 188.411 98.1343 188.307 97.7183 188.307C97.2852 188.307 96.9439 188.403 96.6943 188.596C96.4476 188.785 96.2769 188.996 96.1823 189.228L94.9732 188.953C95.1166 188.551 95.326 188.227 95.6014 187.98C95.8796 187.731 96.1995 187.55 96.5609 187.438C96.9223 187.323 97.3024 187.266 97.7011 187.266C97.965 187.266 98.2447 187.298 98.5402 187.361C98.8385 187.421 99.1167 187.533 99.3749 187.696C99.6359 187.86 99.8496 188.094 100.016 188.398C100.182 188.699 100.266 189.09 100.266 189.572V193.961H99.0092V193.058H98.9575C98.8743 193.224 98.7496 193.387 98.5832 193.548C98.4168 193.709 98.2031 193.842 97.9421 193.948C97.6811 194.054 97.3684 194.107 97.0041 194.107ZM97.2838 193.075C97.6395 193.075 97.9435 193.005 98.196 192.864C98.4512 192.723 98.6449 192.54 98.7768 192.313C98.9116 192.084 98.979 191.838 98.979 191.577V190.726C98.9332 190.771 98.8442 190.814 98.7123 190.855C98.5832 190.892 98.4355 190.925 98.2691 190.954C98.1027 190.979 97.9407 191.004 97.7829 191.027C97.6251 191.047 97.4932 191.064 97.387 191.078C97.1375 191.11 96.9094 191.163 96.7029 191.238C96.4992 191.312 96.3357 191.42 96.2124 191.56C96.0919 191.698 96.0317 191.882 96.0317 192.111C96.0317 192.429 96.1493 192.67 96.3845 192.834C96.6197 192.995 96.9195 193.075 97.2838 193.075ZM103.266 190.037V193.961H101.979V187.352H103.214V188.428H103.296C103.448 188.078 103.686 187.797 104.01 187.585C104.337 187.372 104.749 187.266 105.245 187.266C105.695 187.266 106.09 187.361 106.428 187.55C106.767 187.737 107.029 188.015 107.216 188.385C107.402 188.755 107.495 189.212 107.495 189.757V193.961H106.209V189.912C106.209 189.433 106.084 189.059 105.834 188.789C105.585 188.517 105.242 188.381 104.806 188.381C104.508 188.381 104.242 188.445 104.01 188.574C103.781 188.703 103.598 188.893 103.464 189.142C103.332 189.389 103.266 189.687 103.266 190.037ZM111.992 196.577C111.467 196.577 111.015 196.508 110.636 196.371C110.26 196.233 109.954 196.051 109.715 195.824C109.477 195.598 109.3 195.35 109.182 195.08L110.288 194.624C110.365 194.75 110.468 194.883 110.598 195.024C110.729 195.167 110.907 195.289 111.131 195.39C111.358 195.49 111.649 195.54 112.005 195.54C112.492 195.54 112.895 195.421 113.214 195.183C113.532 194.948 113.691 194.572 113.691 194.056V192.756H113.609C113.532 192.897 113.42 193.053 113.274 193.225C113.13 193.398 112.932 193.547 112.68 193.673C112.428 193.799 112.099 193.862 111.695 193.862C111.173 193.862 110.702 193.74 110.283 193.496C109.867 193.25 109.538 192.887 109.294 192.408C109.053 191.926 108.932 191.334 108.932 190.631C108.932 189.928 109.051 189.326 109.289 188.824C109.53 188.322 109.86 187.937 110.279 187.671C110.698 187.401 111.173 187.266 111.703 187.266C112.114 187.266 112.445 187.335 112.697 187.473C112.95 187.607 113.146 187.765 113.287 187.946C113.43 188.127 113.541 188.286 113.618 188.424H113.713V187.352H114.973V194.107C114.973 194.675 114.841 195.142 114.578 195.506C114.314 195.87 113.957 196.14 113.506 196.315C113.059 196.49 112.554 196.577 111.992 196.577ZM111.979 192.795C112.349 192.795 112.661 192.709 112.917 192.537C113.175 192.362 113.37 192.112 113.502 191.788C113.637 191.461 113.704 191.07 113.704 190.614C113.704 190.169 113.638 189.777 113.506 189.439C113.374 189.101 113.181 188.837 112.925 188.647C112.67 188.455 112.354 188.359 111.979 188.359C111.591 188.359 111.269 188.459 111.011 188.66C110.752 188.858 110.557 189.128 110.425 189.469C110.296 189.81 110.232 190.192 110.232 190.614C110.232 191.047 110.298 191.427 110.43 191.754C110.562 192.081 110.757 192.336 111.015 192.52C111.276 192.703 111.597 192.795 111.979 192.795ZM119.547 194.095C118.896 194.095 118.335 193.955 117.865 193.677C117.397 193.396 117.036 193.002 116.781 192.494C116.528 191.983 116.402 191.385 116.402 190.7C116.402 190.023 116.528 189.426 116.781 188.91C117.036 188.393 117.392 187.99 117.848 187.701C118.307 187.411 118.843 187.266 119.457 187.266C119.83 187.266 120.191 187.328 120.541 187.451C120.891 187.574 121.205 187.768 121.483 188.032C121.762 188.296 121.981 188.639 122.142 189.06C122.302 189.479 122.383 189.988 122.383 190.588V191.044H117.129V190.08H121.122C121.122 189.742 121.053 189.442 120.915 189.181C120.778 188.917 120.584 188.709 120.335 188.557C120.088 188.405 119.798 188.329 119.465 188.329C119.104 188.329 118.788 188.418 118.519 188.596C118.252 188.771 118.046 189 117.899 189.284C117.756 189.565 117.684 189.871 117.684 190.201V190.954C117.684 191.395 117.762 191.771 117.916 192.081C118.074 192.391 118.294 192.627 118.575 192.791C118.856 192.951 119.184 193.032 119.56 193.032C119.804 193.032 120.026 192.997 120.227 192.929C120.428 192.857 120.601 192.751 120.748 192.61C120.894 192.47 121.006 192.296 121.083 192.089L122.301 192.309C122.203 192.667 122.028 192.982 121.776 193.251C121.526 193.518 121.212 193.726 120.834 193.875C120.458 194.021 120.029 194.095 119.547 194.095Z" fill="#6D7486" style="mix-blend-mode:plus-darker"/>
<path d="M514.615 193.961V192.997L517.597 189.908C517.915 189.572 518.177 189.278 518.384 189.026C518.593 188.771 518.75 188.528 518.853 188.299C518.956 188.069 519.008 187.825 519.008 187.567C519.008 187.275 518.939 187.022 518.801 186.81C518.664 186.595 518.476 186.43 518.238 186.315C518 186.198 517.731 186.139 517.433 186.139C517.117 186.139 516.842 186.203 516.607 186.332C516.372 186.462 516.191 186.644 516.065 186.879C515.939 187.114 515.875 187.389 515.875 187.705H514.606C514.606 187.169 514.729 186.7 514.976 186.298C515.223 185.896 515.561 185.585 515.992 185.364C516.422 185.141 516.911 185.029 517.459 185.029C518.012 185.029 518.5 185.139 518.922 185.36C519.346 185.578 519.678 185.876 519.916 186.255C520.154 186.631 520.273 187.055 520.273 187.529C520.273 187.856 520.211 188.175 520.088 188.488C519.967 188.801 519.756 189.149 519.455 189.534C519.154 189.915 518.735 190.378 518.199 190.923L516.448 192.756V192.821H520.415V193.961H514.615ZM525.113 194.082C524.522 194.082 523.995 193.98 523.53 193.776C523.068 193.573 522.702 193.29 522.433 192.929C522.166 192.564 522.023 192.143 522.003 191.664H523.354C523.371 191.925 523.458 192.151 523.616 192.343C523.777 192.533 523.986 192.679 524.244 192.782C524.502 192.885 524.789 192.937 525.105 192.937C525.452 192.937 525.759 192.877 526.026 192.756C526.295 192.636 526.506 192.468 526.658 192.253C526.81 192.035 526.886 191.784 526.886 191.5C526.886 191.205 526.81 190.945 526.658 190.721C526.509 190.495 526.289 190.317 526 190.188C525.713 190.059 525.366 189.994 524.959 189.994H524.214V188.91H524.959C525.286 188.91 525.572 188.851 525.819 188.733C526.069 188.616 526.264 188.452 526.404 188.243C526.545 188.031 526.615 187.782 526.615 187.498C526.615 187.226 526.553 186.989 526.43 186.789C526.31 186.585 526.137 186.426 525.914 186.311C525.693 186.196 525.432 186.139 525.131 186.139C524.844 186.139 524.576 186.192 524.326 186.298C524.079 186.401 523.879 186.55 523.724 186.745C523.569 186.938 523.486 187.169 523.474 187.438H522.188C522.202 186.962 522.342 186.543 522.609 186.182C522.879 185.82 523.235 185.538 523.676 185.334C524.118 185.131 524.609 185.029 525.148 185.029C525.713 185.029 526.201 185.139 526.611 185.36C527.024 185.578 527.342 185.869 527.566 186.233C527.793 186.598 527.904 186.996 527.902 187.43C527.904 187.923 527.767 188.342 527.489 188.686C527.213 189.03 526.846 189.261 526.387 189.379V189.448C526.972 189.537 527.425 189.769 527.747 190.145C528.071 190.52 528.231 190.987 528.229 191.543C528.231 192.028 528.097 192.462 527.824 192.847C527.554 193.231 527.186 193.534 526.718 193.755C526.251 193.973 525.716 194.082 525.113 194.082ZM536.973 188.996V190.115H533.066V188.996H536.973ZM544.945 194.082C544.354 194.082 543.826 193.98 543.361 193.776C542.899 193.573 542.534 193.29 542.264 192.929C541.997 192.564 541.854 192.143 541.834 191.664H543.185C543.202 191.925 543.29 192.151 543.447 192.343C543.608 192.533 543.817 192.679 544.076 192.782C544.334 192.885 544.621 192.937 544.936 192.937C545.283 192.937 545.59 192.877 545.857 192.756C546.127 192.636 546.337 192.468 546.489 192.253C546.641 192.035 546.717 191.784 546.717 191.5C546.717 191.205 546.641 190.945 546.489 190.721C546.34 190.495 546.121 190.317 545.831 190.188C545.544 190.059 545.197 189.994 544.79 189.994H544.045V188.91H544.79C545.117 188.91 545.404 188.851 545.65 188.733C545.9 188.616 546.095 188.452 546.236 188.243C546.376 188.031 546.446 187.782 546.446 187.498C546.446 187.226 546.385 186.989 546.261 186.789C546.141 186.585 545.969 186.426 545.745 186.311C545.524 186.196 545.263 186.139 544.962 186.139C544.675 186.139 544.407 186.192 544.157 186.298C543.911 186.401 543.71 186.55 543.555 186.745C543.4 186.938 543.317 187.169 543.305 187.438H542.019C542.033 186.962 542.174 186.543 542.441 186.182C542.71 185.82 543.066 185.538 543.508 185.334C543.949 185.131 544.44 185.029 544.979 185.029C545.544 185.029 546.032 185.139 546.442 185.36C546.855 185.578 547.174 185.869 547.397 186.233C547.624 186.598 547.736 186.996 547.733 187.43C547.736 187.923 547.598 188.342 547.32 188.686C547.044 189.03 546.677 189.261 546.218 189.379V189.448C546.803 189.537 547.257 189.769 547.578 190.145C547.902 190.52 548.063 190.987 548.06 191.543C548.063 192.028 547.928 192.462 547.655 192.847C547.386 193.231 547.017 193.534 546.55 193.755C546.082 193.973 545.547 194.082 544.945 194.082ZM552.754 194.107C552.074 194.105 551.493 193.925 551.012 193.57C550.53 193.214 550.161 192.696 549.906 192.016C549.65 191.337 549.523 190.518 549.523 189.559C549.523 188.604 549.65 187.788 549.906 187.111C550.164 186.434 550.534 185.918 551.016 185.562C551.501 185.207 552.08 185.029 552.754 185.029C553.428 185.029 554.006 185.208 554.488 185.567C554.97 185.922 555.339 186.439 555.594 187.116C555.852 187.79 555.981 188.604 555.981 189.559C555.981 190.52 555.854 191.341 555.598 192.021C555.343 192.698 554.974 193.215 554.492 193.574C554.011 193.93 553.431 194.107 552.754 194.107ZM552.754 192.959C553.351 192.959 553.817 192.667 554.153 192.085C554.491 191.503 554.66 190.661 554.66 189.559C554.66 188.828 554.583 188.21 554.428 187.705C554.276 187.197 554.056 186.813 553.77 186.552C553.486 186.288 553.147 186.156 552.754 186.156C552.16 186.156 551.694 186.449 551.356 187.034C551.017 187.619 550.847 188.461 550.844 189.559C550.844 190.294 550.92 190.915 551.072 191.423C551.227 191.927 551.446 192.31 551.73 192.571C552.014 192.83 552.355 192.959 552.754 192.959Z" fill="url(#paint0_linear_34_1370)"/>
<path d="M514.615 193.961V192.997L517.597 189.908C517.915 189.572 518.177 189.278 518.384 189.026C518.593 188.771 518.75 188.528 518.853 188.299C518.956 188.069 519.008 187.825 519.008 187.567C519.008 187.275 518.939 187.022 518.801 186.81C518.664 186.595 518.476 186.43 518.238 186.315C518 186.198 517.731 186.139 517.433 186.139C517.117 186.139 516.842 186.203 516.607 186.332C516.372 186.462 516.191 186.644 516.065 186.879C515.939 187.114 515.875 187.389 515.875 187.705H514.606C514.606 187.169 514.729 186.7 514.976 186.298C515.223 185.896 515.561 185.585 515.992 185.364C516.422 185.141 516.911 185.029 517.459 185.029C518.012 185.029 518.5 185.139 518.922 185.36C519.346 185.578 519.678 185.876 519.916 186.255C520.154 186.631 520.273 187.055 520.273 187.529C520.273 187.856 520.211 188.175 520.088 188.488C519.967 188.801 519.756 189.149 519.455 189.534C519.154 189.915 518.735 190.378 518.199 190.923L516.448 192.756V192.821H520.415V193.961H514.615ZM525.113 194.082C524.522 194.082 523.995 193.98 523.53 193.776C523.068 193.573 522.702 193.29 522.433 192.929C522.166 192.564 522.023 192.143 522.003 191.664H523.354C523.371 191.925 523.458 192.151 523.616 192.343C523.777 192.533 523.986 192.679 524.244 192.782C524.502 192.885 524.789 192.937 525.105 192.937C525.452 192.937 525.759 192.877 526.026 192.756C526.295 192.636 526.506 192.468 526.658 192.253C526.81 192.035 526.886 191.784 526.886 191.5C526.886 191.205 526.81 190.945 526.658 190.721C526.509 190.495 526.289 190.317 526 190.188C525.713 190.059 525.366 189.994 524.959 189.994H524.214V188.91H524.959C525.286 188.91 525.572 188.851 525.819 188.733C526.069 188.616 526.264 188.452 526.404 188.243C526.545 188.031 526.615 187.782 526.615 187.498C526.615 187.226 526.553 186.989 526.43 186.789C526.31 186.585 526.137 186.426 525.914 186.311C525.693 186.196 525.432 186.139 525.131 186.139C524.844 186.139 524.576 186.192 524.326 186.298C524.079 186.401 523.879 186.55 523.724 186.745C523.569 186.938 523.486 187.169 523.474 187.438H522.188C522.202 186.962 522.342 186.543 522.609 186.182C522.879 185.82 523.235 185.538 523.676 185.334C524.118 185.131 524.609 185.029 525.148 185.029C525.713 185.029 526.201 185.139 526.611 185.36C527.024 185.578 527.342 185.869 527.566 186.233C527.793 186.598 527.904 186.996 527.902 187.43C527.904 187.923 527.767 188.342 527.489 188.686C527.213 189.03 526.846 189.261 526.387 189.379V189.448C526.972 189.537 527.425 189.769 527.747 190.145C528.071 190.52 528.231 190.987 528.229 191.543C528.231 192.028 528.097 192.462 527.824 192.847C527.554 193.231 527.186 193.534 526.718 193.755C526.251 193.973 525.716 194.082 525.113 194.082ZM536.973 188.996V190.115H533.066V188.996H536.973ZM544.945 194.082C544.354 194.082 543.826 193.98 543.361 193.776C542.899 193.573 542.534 193.29 542.264 192.929C541.997 192.564 541.854 192.143 541.834 191.664H543.185C543.202 191.925 543.29 192.151 543.447 192.343C543.608 192.533 543.817 192.679 544.076 192.782C544.334 192.885 544.621 192.937 544.936 192.937C545.283 192.937 545.59 192.877 545.857 192.756C546.127 192.636 546.337 192.468 546.489 192.253C546.641 192.035 546.717 191.784 546.717 191.5C546.717 191.205 546.641 190.945 546.489 190.721C546.34 190.495 546.121 190.317 545.831 190.188C545.544 190.059 545.197 189.994 544.79 189.994H544.045V188.91H544.79C545.117 188.91 545.404 188.851 545.65 188.733C545.9 188.616 546.095 188.452 546.236 188.243C546.376 188.031 546.446 187.782 546.446 187.498C546.446 187.226 546.385 186.989 546.261 186.789C546.141 186.585 545.969 186.426 545.745 186.311C545.524 186.196 545.263 186.139 544.962 186.139C544.675 186.139 544.407 186.192 544.157 186.298C543.911 186.401 543.71 186.55 543.555 186.745C543.4 186.938 543.317 187.169 543.305 187.438H542.019C542.033 186.962 542.174 186.543 542.441 186.182C542.71 185.82 543.066 185.538 543.508 185.334C543.949 185.131 544.44 185.029 544.979 185.029C545.544 185.029 546.032 185.139 546.442 185.36C546.855 185.578 547.174 185.869 547.397 186.233C547.624 186.598 547.736 186.996 547.733 187.43C547.736 187.923 547.598 188.342 547.32 188.686C547.044 189.03 546.677 189.261 546.218 189.379V189.448C546.803 189.537 547.257 189.769 547.578 190.145C547.902 190.52 548.063 190.987 548.06 191.543C548.063 192.028 547.928 192.462 547.655 192.847C547.386 193.231 547.017 193.534 546.55 193.755C546.082 193.973 545.547 194.082 544.945 194.082ZM552.754 194.107C552.074 194.105 551.493 193.925 551.012 193.57C550.53 193.214 550.161 192.696 549.906 192.016C549.65 191.337 549.523 190.518 549.523 189.559C549.523 188.604 549.65 187.788 549.906 187.111C550.164 186.434 550.534 185.918 551.016 185.562C551.501 185.207 552.08 185.029 552.754 185.029C553.428 185.029 554.006 185.208 554.488 185.567C554.97 185.922 555.339 186.439 555.594 187.116C555.852 187.79 555.981 188.604 555.981 189.559C555.981 190.52 555.854 191.341 555.598 192.021C555.343 192.698 554.974 193.215 554.492 193.574C554.011 193.93 553.431 194.107 552.754 194.107ZM552.754 192.959C553.351 192.959 553.817 192.667 554.153 192.085C554.491 191.503 554.66 190.661 554.66 189.559C554.66 188.828 554.583 188.21 554.428 187.705C554.276 187.197 554.056 186.813 553.77 186.552C553.486 186.288 553.147 186.156 552.754 186.156C552.16 186.156 551.694 186.449 551.356 187.034C551.017 187.619 550.847 188.461 550.844 189.559C550.844 190.294 550.92 190.915 551.072 191.423C551.227 191.927 551.446 192.31 551.73 192.571C552.014 192.83 552.355 192.959 552.754 192.959Z" fill="url(#paint1_radial_34_1370)"/>
<mask id="path-10-inside-1_34_1370" fill="white">
<path d="M60.2329 205.02H556.767V244.398H60.2329V205.02Z"/>
</mask>
<path d="M556.767 243.641H60.2329V245.155H556.767V243.641Z" fill="#F5F6FA" mask="url(#path-10-inside-1_34_1370)"/>
<rect width="496.534" height="3.02913" transform="translate(60.2329 223.194)" fill="black" fill-opacity="0.05"/>
<circle cx="71.2145" cy="225.088" r="10.9806" fill="#3779EF"/>
<circle cx="136.981" cy="225.088" r="10.9806" fill="#3779EF"/>
<rect width="60.5825" height="3.02913" transform="translate(76.894 223.194)" fill="#3779EF"/>
<path d="M67.1646 269.545C67.0814 269.284 66.9696 269.05 66.829 268.843C66.6913 268.634 66.5264 268.456 66.3342 268.31C66.142 268.161 65.9226 268.047 65.6759 267.97C65.432 267.892 65.1638 267.854 64.8713 267.854C64.375 267.854 63.9275 267.981 63.5288 268.237C63.1301 268.492 62.8146 268.866 62.5822 269.36C62.3527 269.85 62.238 270.451 62.238 271.162C62.238 271.877 62.3542 272.481 62.5865 272.974C62.8189 273.467 63.1373 273.842 63.5417 274.097C63.9462 274.352 64.4066 274.48 64.9229 274.48C65.4019 274.48 65.8193 274.382 66.175 274.187C66.5335 273.992 66.8104 273.717 67.0054 273.361C67.2033 273.003 67.3023 272.581 67.3023 272.096L67.6465 272.161H65.1251V271.063H68.5888V272.066C68.5888 272.806 68.4311 273.449 68.1155 273.994C67.8029 274.536 67.3697 274.955 66.8161 275.25C66.2653 275.546 65.6343 275.693 64.9229 275.693C64.1255 275.693 63.4255 275.51 62.8232 275.142C62.2236 274.775 61.7561 274.255 61.4205 273.581C61.0849 272.904 60.917 272.1 60.917 271.171C60.917 270.468 61.0146 269.837 61.2096 269.278C61.4047 268.718 61.6786 268.244 62.0315 267.854C62.3871 267.461 62.8045 267.161 63.2835 266.954C63.7655 266.745 64.2918 266.64 64.8627 266.64C65.3388 266.64 65.782 266.711 66.1922 266.851C66.6053 266.992 66.9724 267.191 67.2937 267.449C67.6178 267.707 67.886 268.014 68.0983 268.37C68.3106 268.723 68.454 269.114 68.5286 269.545H67.1646ZM73.0217 275.706C72.3706 275.706 71.8098 275.567 71.3393 275.289C70.8718 275.008 70.5104 274.613 70.2551 274.106C70.0026 273.595 69.8764 272.997 69.8764 272.311C69.8764 271.634 70.0026 271.038 70.2551 270.521C70.5104 270.005 70.866 269.602 71.3221 269.312C71.7811 269.023 72.3175 268.878 72.9314 268.878C73.3043 268.878 73.6657 268.939 74.0156 269.063C74.3656 269.186 74.6797 269.38 74.9579 269.644C75.2362 269.907 75.4556 270.25 75.6163 270.672C75.7769 271.091 75.8572 271.6 75.8572 272.199V272.655H70.6036V271.692H74.5965C74.5965 271.353 74.5277 271.053 74.39 270.792C74.2523 270.529 74.0587 270.321 73.8091 270.169C73.5624 270.016 73.2727 269.94 72.94 269.94C72.5785 269.94 72.263 270.029 71.9934 270.207C71.7266 270.382 71.5201 270.612 71.3738 270.896C71.2303 271.177 71.1586 271.482 71.1586 271.812V272.565C71.1586 273.007 71.2361 273.383 71.391 273.692C71.5487 274.002 71.7682 274.239 72.0493 274.402C72.3304 274.563 72.6589 274.643 73.0346 274.643C73.2784 274.643 73.5008 274.609 73.7016 274.54C73.9023 274.468 74.0759 274.362 74.2222 274.222C74.3685 274.081 74.4803 273.908 74.5578 273.701L75.7755 273.921C75.6779 274.279 75.503 274.593 75.2505 274.863C75.001 275.13 74.6869 275.338 74.3082 275.487C73.9325 275.633 73.5036 275.706 73.0217 275.706ZM78.5712 271.649V275.573H77.2847V268.964H78.5195V270.039H78.6013C78.7533 269.689 78.9914 269.408 79.3155 269.196C79.6426 268.984 80.0542 268.878 80.5504 268.878C81.0008 268.878 81.3952 268.972 81.7337 269.162C82.0722 269.348 82.3346 269.626 82.5211 269.996C82.7075 270.366 82.8008 270.824 82.8008 271.369V275.573H81.5142V271.524C81.5142 271.045 81.3895 270.671 81.1399 270.401C80.8903 270.128 80.5476 269.992 80.1116 269.992C79.8132 269.992 79.5479 270.057 79.3155 270.186C79.0861 270.315 78.9039 270.504 78.7691 270.754C78.6371 271 78.5712 271.299 78.5712 271.649ZM87.0002 275.702C86.4667 275.702 85.9905 275.566 85.5717 275.293C85.1558 275.018 84.8288 274.626 84.5907 274.118C84.3555 273.608 84.2379 272.995 84.2379 272.281C84.2379 271.567 84.3569 270.956 84.595 270.448C84.836 269.94 85.1658 269.552 85.5846 269.282C86.0034 269.013 86.4782 268.878 87.0088 268.878C87.419 268.878 87.7489 268.947 87.9985 269.084C88.2509 269.219 88.446 269.377 88.5836 269.558C88.7242 269.738 88.8332 269.897 88.9106 270.035H88.9881V266.761H90.2746V275.573H89.0182V274.544H88.9106C88.8332 274.685 88.7213 274.846 88.575 275.026C88.4316 275.207 88.2337 275.365 87.9813 275.5C87.7288 275.634 87.4018 275.702 87.0002 275.702ZM87.2842 274.605C87.6542 274.605 87.9669 274.507 88.2222 274.312C88.4804 274.114 88.6754 273.84 88.8074 273.49C88.9422 273.14 89.0096 272.733 89.0096 272.268C89.0096 271.809 88.9436 271.408 88.8117 271.063C88.6797 270.719 88.4861 270.451 88.2308 270.259C87.9755 270.067 87.66 269.971 87.2842 269.971C86.897 269.971 86.5743 270.071 86.3161 270.272C86.0579 270.473 85.8629 270.747 85.7309 271.094C85.6018 271.441 85.5373 271.832 85.5373 272.268C85.5373 272.71 85.6033 273.107 85.7352 273.46C85.8672 273.813 86.0622 274.093 86.3204 274.299C86.5814 274.503 86.9027 274.605 87.2842 274.605ZM94.9592 275.706C94.3081 275.706 93.7473 275.567 93.2768 275.289C92.8093 275.008 92.4479 274.613 92.1926 274.106C91.9401 273.595 91.8139 272.997 91.8139 272.311C91.8139 271.634 91.9401 271.038 92.1926 270.521C92.4479 270.005 92.8035 269.602 93.2596 269.312C93.7186 269.023 94.255 268.878 94.8689 268.878C95.2418 268.878 95.6032 268.939 95.9531 269.063C96.3031 269.186 96.6172 269.38 96.8954 269.644C97.1737 269.907 97.3931 270.25 97.5538 270.672C97.7144 271.091 97.7947 271.6 97.7947 272.199V272.655H92.5411V271.692H96.534C96.534 271.353 96.4652 271.053 96.3275 270.792C96.1898 270.529 95.9962 270.321 95.7466 270.169C95.4999 270.016 95.2102 269.94 94.8775 269.94C94.516 269.94 94.2005 270.029 93.9309 270.207C93.6641 270.382 93.4576 270.612 93.3113 270.896C93.1678 271.177 93.0961 271.482 93.0961 271.812V272.565C93.0961 273.007 93.1736 273.383 93.3285 273.692C93.4862 274.002 93.7057 274.239 93.9868 274.402C94.2679 274.563 94.5964 274.643 94.9721 274.643C95.2159 274.643 95.4383 274.609 95.6391 274.54C95.8398 274.468 96.0134 274.362 96.1597 274.222C96.306 274.081 96.4178 273.908 96.4953 273.701L97.713 273.921C97.6154 274.279 97.4405 274.593 97.188 274.863C96.9385 275.13 96.6244 275.338 96.2457 275.487C95.87 275.633 95.4411 275.706 94.9592 275.706ZM99.2222 275.573V268.964H100.466V270.014H100.534C100.655 269.658 100.867 269.378 101.171 269.175C101.478 268.968 101.825 268.865 102.213 268.865C102.293 268.865 102.388 268.868 102.497 268.873C102.608 268.879 102.696 268.886 102.759 268.895V270.125C102.707 270.111 102.616 270.095 102.484 270.078C102.352 270.058 102.22 270.048 102.088 270.048C101.784 270.048 101.513 270.113 101.275 270.242C101.039 270.368 100.853 270.544 100.715 270.771C100.578 270.995 100.509 271.25 100.509 271.537V275.573H99.2222Z" fill="#6D7486" style="mix-blend-mode:plus-darker"/>
<g filter="url(#filter2_dddd_34_1370)">
<path d="M60.2329 294.631C60.2329 291.285 62.9453 288.573 66.2912 288.573H293.354C296.7 288.573 299.413 291.285 299.413 294.631V312.806C299.413 316.152 296.7 318.864 293.354 318.864H66.2912C62.9453 318.864 60.2329 316.152 60.2329 312.806V294.631Z" fill="white"/>
<path d="M66.2912 288.951H293.354C296.491 288.951 299.034 291.494 299.034 294.631V312.806C299.034 315.943 296.491 318.485 293.354 318.485H66.2912C63.1544 318.485 60.6116 315.943 60.6116 312.806V294.631C60.6116 291.494 63.1544 288.951 66.2912 288.951Z" stroke="#222222" stroke-opacity="0.1" stroke-width="0.757282"/>
<path d="M78.2358 301.11C78.1841 300.673 77.9747 300.335 77.6076 300.094C77.2404 299.853 76.79 299.733 76.2565 299.733C75.8664 299.733 75.525 299.796 75.2324 299.922C74.9427 300.048 74.7161 300.222 74.5526 300.443C74.392 300.663 74.3117 300.914 74.3117 301.196C74.3117 301.431 74.3676 301.633 74.4795 301.802C74.5942 301.969 74.7405 302.108 74.9183 302.22C75.0962 302.329 75.2826 302.419 75.4777 302.491C75.6728 302.56 75.852 302.615 76.0155 302.658L76.9105 302.899C77.14 302.96 77.3953 303.043 77.6764 303.149C77.9604 303.255 78.2314 303.4 78.4896 303.584C78.7506 303.764 78.9658 303.997 79.135 304.281C79.3043 304.565 79.3889 304.913 79.3889 305.326C79.3889 305.802 79.2641 306.233 79.0145 306.617C78.7679 307.001 78.4064 307.307 77.9303 307.533C77.457 307.76 76.8818 307.873 76.2049 307.873C75.5738 307.873 75.0273 307.772 74.5655 307.568C74.1066 307.364 73.7451 307.08 73.4812 306.716C73.2202 306.352 73.0725 305.929 73.038 305.447H74.1395C74.1682 305.779 74.2801 306.055 74.4752 306.273C74.6731 306.488 74.9226 306.649 75.2238 306.755C75.5279 306.858 75.8549 306.91 76.2049 306.91C76.6122 306.91 76.9779 306.844 77.3021 306.712C77.6262 306.577 77.8829 306.39 78.0722 306.152C78.2616 305.911 78.3562 305.63 78.3562 305.309C78.3562 305.016 78.2745 304.778 78.111 304.595C77.9475 304.411 77.7323 304.262 77.4656 304.147C77.1988 304.032 76.9105 303.932 76.6007 303.846L75.5164 303.536C74.828 303.338 74.283 303.056 73.8814 302.689C73.4798 302.321 73.279 301.841 73.279 301.247C73.279 300.754 73.4124 300.324 73.6792 299.956C73.9488 299.586 74.3102 299.299 74.7634 299.096C75.2195 298.889 75.7287 298.786 76.2909 298.786C76.8589 298.786 77.3637 298.888 77.8055 299.092C78.2472 299.292 78.5972 299.568 78.8553 299.918C79.1164 300.268 79.2541 300.665 79.2684 301.11H78.2358ZM83.7766 307.856C83.1398 307.856 82.5905 307.716 82.1287 307.435C81.6697 307.151 81.3154 306.755 81.0659 306.247C80.8192 305.736 80.6958 305.143 80.6958 304.466C80.6958 303.789 80.8192 303.192 81.0659 302.676C81.3154 302.157 81.6625 301.752 82.1071 301.462C82.5546 301.17 83.0767 301.023 83.6733 301.023C84.0176 301.023 84.3575 301.081 84.6931 301.196C85.0287 301.31 85.3342 301.497 85.6096 301.755C85.8849 302.01 86.1044 302.349 86.2679 302.77C86.4314 303.192 86.5131 303.711 86.5131 304.328V304.758H81.4187V303.88H85.4805C85.4805 303.508 85.4059 303.175 85.2567 302.882C85.1104 302.59 84.901 302.359 84.6285 302.189C84.3589 302.02 84.0405 301.936 83.6733 301.936C83.2689 301.936 82.9189 302.036 82.6235 302.237C82.3309 302.435 82.1057 302.693 81.9479 303.011C81.7902 303.33 81.7113 303.671 81.7113 304.035V304.621C81.7113 305.12 81.7973 305.543 81.9695 305.89C82.1444 306.234 82.3868 306.497 82.6966 306.677C83.0064 306.855 83.3664 306.944 83.7766 306.944C84.0434 306.944 84.2843 306.907 84.4995 306.832C84.7175 306.755 84.9054 306.64 85.0631 306.488C85.2209 306.333 85.3428 306.141 85.4289 305.911L86.4099 306.187C86.3066 306.519 86.1331 306.812 85.8892 307.064C85.6454 307.314 85.3442 307.509 84.9857 307.65C84.6271 307.787 84.2241 307.856 83.7766 307.856ZM89.0733 298.907V307.719H88.0578V298.907H89.0733ZM93.7041 307.856C93.0673 307.856 92.518 307.716 92.0561 307.435C91.5972 307.151 91.2429 306.755 90.9934 306.247C90.7467 305.736 90.6233 305.143 90.6233 304.466C90.6233 303.789 90.7467 303.192 90.9934 302.676C91.2429 302.157 91.59 301.752 92.0346 301.462C92.4821 301.17 93.0042 301.023 93.6008 301.023C93.945 301.023 94.285 301.081 94.6206 301.196C94.9562 301.31 95.2617 301.497 95.5371 301.755C95.8124 302.01 96.0319 302.349 96.1954 302.77C96.3589 303.192 96.4406 303.711 96.4406 304.328V304.758H91.3462V303.88H95.408C95.408 303.508 95.3334 303.175 95.1842 302.882C95.0379 302.59 94.8285 302.359 94.556 302.189C94.2864 302.02 93.968 301.936 93.6008 301.936C93.1964 301.936 92.8464 302.036 92.551 302.237C92.2584 302.435 92.0332 302.693 91.8754 303.011C91.7177 303.33 91.6388 303.671 91.6388 304.035V304.621C91.6388 305.12 91.7248 305.543 91.8969 305.89C92.0719 306.234 92.3143 306.497 92.6241 306.677C92.9339 306.855 93.2939 306.944 93.7041 306.944C93.9709 306.944 94.2118 306.907 94.4269 306.832C94.645 306.755 94.8328 306.64 94.9906 306.488C95.1484 306.333 95.2703 306.141 95.3563 305.911L96.3374 306.187C96.2341 306.519 96.0606 306.812 95.8167 307.064C95.5729 307.314 95.2717 307.509 94.9132 307.65C94.5546 307.787 94.1516 307.856 93.7041 307.856ZM100.67 307.856C100.051 307.856 99.5171 307.71 99.0696 307.417C98.6221 307.125 98.2779 306.722 98.0369 306.208C97.796 305.695 97.6755 305.108 97.6755 304.448C97.6755 303.777 97.7989 303.185 98.0455 302.671C98.2951 302.155 98.6422 301.752 99.0868 301.462C99.5343 301.17 100.056 301.023 100.653 301.023C101.118 301.023 101.537 301.11 101.909 301.282C102.282 301.454 102.588 301.695 102.826 302.004C103.064 302.314 103.212 302.676 103.269 303.089H102.254C102.176 302.788 102.004 302.521 101.737 302.288C101.473 302.053 101.118 301.936 100.67 301.936C100.274 301.936 99.9273 302.039 99.629 302.245C99.3335 302.449 99.1026 302.737 98.9362 303.11C98.7727 303.48 98.691 303.915 98.691 304.414C98.691 304.925 98.7713 305.369 98.9319 305.748C99.0954 306.126 99.3249 306.421 99.6204 306.63C99.9187 306.839 100.269 306.944 100.67 306.944C100.934 306.944 101.174 306.898 101.389 306.806C101.604 306.715 101.786 306.583 101.935 306.41C102.084 306.238 102.191 306.032 102.254 305.791H103.269C103.212 306.181 103.07 306.532 102.843 306.845C102.619 307.155 102.322 307.402 101.952 307.585C101.585 307.766 101.158 307.856 100.67 307.856ZM107.628 301.11V301.97H104.203V301.11H107.628ZM105.201 299.526H106.216V305.825C106.216 306.112 106.258 306.327 106.341 306.471C106.427 306.611 106.536 306.706 106.668 306.755C106.803 306.801 106.945 306.824 107.094 306.824C107.206 306.824 107.298 306.818 107.37 306.806C107.441 306.792 107.499 306.781 107.542 306.772L107.748 307.684C107.679 307.71 107.583 307.736 107.46 307.762C107.337 307.79 107.18 307.805 106.991 307.805C106.704 307.805 106.423 307.743 106.148 307.62C105.875 307.496 105.648 307.308 105.468 307.056C105.29 306.803 105.201 306.485 105.201 306.101V299.526Z" fill="#6D7486" style="mix-blend-mode:plus-darker"/>
<path d="M275.937 301.825L279.723 305.612L283.509 301.825" stroke="#6D7486" stroke-opacity="0.7" stroke-width="1.51456" stroke-linecap="round" stroke-linejoin="round"/>
</g>
<path d="M318.556 275.573V266.761H319.885V274.428H323.878V275.573H318.556ZM328.075 275.706C327.456 275.706 326.915 275.564 326.453 275.28C325.991 274.996 325.633 274.599 325.378 274.088C325.122 273.578 324.995 272.981 324.995 272.298C324.995 271.613 325.122 271.013 325.378 270.5C325.633 269.986 325.991 269.588 326.453 269.304C326.915 269.02 327.456 268.878 328.075 268.878C328.695 268.878 329.236 269.02 329.697 269.304C330.159 269.588 330.518 269.986 330.773 270.5C331.028 271.013 331.156 271.613 331.156 272.298C331.156 272.981 331.028 273.578 330.773 274.088C330.518 274.599 330.159 274.996 329.697 275.28C329.236 275.564 328.695 275.706 328.075 275.706ZM328.08 274.626C328.481 274.626 328.814 274.52 329.078 274.308C329.342 274.095 329.537 273.813 329.663 273.46C329.792 273.107 329.857 272.719 329.857 272.294C329.857 271.872 329.792 271.485 329.663 271.132C329.537 270.777 329.342 270.491 329.078 270.276C328.814 270.061 328.481 269.953 328.08 269.953C327.675 269.953 327.34 270.061 327.073 270.276C326.809 270.491 326.612 270.777 326.483 271.132C326.357 271.485 326.294 271.872 326.294 272.294C326.294 272.719 326.357 273.107 326.483 273.46C326.612 273.813 326.809 274.095 327.073 274.308C327.34 274.52 327.675 274.626 328.08 274.626ZM335.376 275.706C334.736 275.706 334.186 275.561 333.724 275.272C333.265 274.979 332.912 274.576 332.665 274.062C332.419 273.549 332.295 272.961 332.295 272.298C332.295 271.627 332.421 271.035 332.674 270.521C332.926 270.005 333.282 269.602 333.741 269.312C334.2 269.023 334.741 268.878 335.363 268.878C335.865 268.878 336.313 268.971 336.706 269.157C337.099 269.341 337.415 269.599 337.656 269.932C337.9 270.265 338.045 270.653 338.091 271.098H336.839C336.77 270.788 336.612 270.521 336.366 270.298C336.122 270.074 335.795 269.962 335.385 269.962C335.026 269.962 334.712 270.057 334.442 270.246C334.176 270.432 333.968 270.699 333.818 271.046C333.669 271.39 333.595 271.798 333.595 272.268C333.595 272.75 333.668 273.166 333.814 273.516C333.96 273.866 334.167 274.137 334.434 274.329C334.703 274.521 335.02 274.618 335.385 274.618C335.628 274.618 335.849 274.573 336.047 274.484C336.248 274.392 336.416 274.262 336.551 274.093C336.688 273.923 336.784 273.72 336.839 273.482H338.091C338.045 273.909 337.906 274.291 337.674 274.626C337.441 274.962 337.13 275.226 336.74 275.418C336.353 275.61 335.898 275.706 335.376 275.706ZM341.39 275.719C340.971 275.719 340.593 275.642 340.254 275.487C339.916 275.329 339.648 275.101 339.45 274.803C339.255 274.504 339.157 274.139 339.157 273.705C339.157 273.332 339.229 273.026 339.372 272.785C339.516 272.544 339.709 272.353 339.953 272.212C340.197 272.072 340.469 271.966 340.771 271.894C341.072 271.822 341.379 271.768 341.691 271.73C342.087 271.685 342.408 271.647 342.655 271.619C342.902 271.587 343.081 271.537 343.193 271.468C343.305 271.399 343.361 271.287 343.361 271.132V271.102C343.361 270.726 343.255 270.435 343.042 270.229C342.833 270.022 342.52 269.919 342.104 269.919C341.671 269.919 341.33 270.015 341.08 270.207C340.834 270.397 340.663 270.607 340.568 270.84L339.359 270.564C339.503 270.163 339.712 269.839 339.987 269.592C340.266 269.342 340.586 269.162 340.947 269.05C341.308 268.935 341.688 268.878 342.087 268.878C342.351 268.878 342.631 268.909 342.926 268.972C343.225 269.033 343.503 269.144 343.761 269.308C344.022 269.471 344.236 269.705 344.402 270.009C344.568 270.311 344.652 270.702 344.652 271.184V275.573H343.395V274.669H343.344C343.26 274.836 343.136 274.999 342.969 275.16C342.803 275.32 342.589 275.454 342.328 275.56C342.067 275.666 341.754 275.719 341.39 275.719ZM341.67 274.686C342.026 274.686 342.33 274.616 342.582 274.476C342.837 274.335 343.031 274.151 343.163 273.925C343.298 273.695 343.365 273.45 343.365 273.189V272.337C343.319 272.383 343.23 272.426 343.098 272.466C342.969 272.503 342.822 272.536 342.655 272.565C342.489 272.591 342.327 272.615 342.169 272.638C342.011 272.658 341.879 272.676 341.773 272.69C341.524 272.721 341.295 272.775 341.089 272.849C340.885 272.924 340.722 273.031 340.598 273.172C340.478 273.31 340.418 273.493 340.418 273.723C340.418 274.041 340.535 274.282 340.771 274.445C341.006 274.606 341.306 274.686 341.67 274.686ZM349.45 268.964V269.996H345.84V268.964H349.45ZM346.808 267.38H348.095V273.632C348.095 273.882 348.132 274.07 348.207 274.196C348.281 274.319 348.377 274.404 348.495 274.45C348.616 274.493 348.746 274.514 348.887 274.514C348.99 274.514 349.08 274.507 349.158 274.493C349.235 274.478 349.295 274.467 349.338 274.458L349.571 275.521C349.496 275.55 349.39 275.578 349.252 275.607C349.115 275.639 348.943 275.656 348.736 275.659C348.398 275.665 348.082 275.604 347.789 275.478C347.497 275.352 347.26 275.157 347.079 274.893C346.899 274.629 346.808 274.298 346.808 273.899V267.38ZM350.873 275.573V268.964H352.16V275.573H350.873ZM351.523 267.944C351.299 267.944 351.107 267.869 350.947 267.72C350.789 267.568 350.71 267.388 350.71 267.178C350.71 266.966 350.789 266.785 350.947 266.636C351.107 266.484 351.299 266.408 351.523 266.408C351.747 266.408 351.938 266.484 352.095 266.636C352.256 266.785 352.336 266.966 352.336 267.178C352.336 267.388 352.256 267.568 352.095 267.72C351.938 267.869 351.747 267.944 351.523 267.944ZM356.675 275.706C356.055 275.706 355.514 275.564 355.052 275.28C354.591 274.996 354.232 274.599 353.977 274.088C353.721 273.578 353.594 272.981 353.594 272.298C353.594 271.613 353.721 271.013 353.977 270.5C354.232 269.986 354.591 269.588 355.052 269.304C355.514 269.02 356.055 268.878 356.675 268.878C357.294 268.878 357.835 269.02 358.297 269.304C358.758 269.588 359.117 269.986 359.372 270.5C359.628 271.013 359.755 271.613 359.755 272.298C359.755 272.981 359.628 273.578 359.372 274.088C359.117 274.599 358.758 274.996 358.297 275.28C357.835 275.564 357.294 275.706 356.675 275.706ZM356.679 274.626C357.08 274.626 357.413 274.52 357.677 274.308C357.941 274.095 358.136 273.813 358.262 273.46C358.391 273.107 358.456 272.719 358.456 272.294C358.456 271.872 358.391 271.485 358.262 271.132C358.136 270.777 357.941 270.491 357.677 270.276C357.413 270.061 357.08 269.953 356.679 269.953C356.274 269.953 355.939 270.061 355.672 270.276C355.408 270.491 355.212 270.777 355.083 271.132C354.956 271.485 354.893 271.872 354.893 272.294C354.893 272.719 354.956 273.107 355.083 273.46C355.212 273.813 355.408 274.095 355.672 274.308C355.939 274.52 356.274 274.626 356.679 274.626ZM362.478 271.649V275.573H361.191V268.964H362.426V270.039H362.508C362.66 269.689 362.898 269.408 363.222 269.196C363.549 268.984 363.961 268.878 364.457 268.878C364.907 268.878 365.302 268.972 365.64 269.162C365.979 269.348 366.241 269.626 366.428 269.996C366.614 270.366 366.707 270.824 366.707 271.369V275.573H365.421V271.524C365.421 271.045 365.296 270.671 365.047 270.401C364.797 270.128 364.454 269.992 364.018 269.992C363.72 269.992 363.455 270.057 363.222 270.186C362.993 270.315 362.811 270.504 362.676 270.754C362.544 271 362.478 271.299 362.478 271.649Z" fill="#6D7486" style="mix-blend-mode:plus-darker"/>
<g filter="url(#filter3_dddd_34_1370)">
<path d="M317.587 294.631C317.587 291.285 320.3 288.573 323.646 288.573H550.709C554.055 288.573 556.767 291.285 556.767 294.631V312.806C556.767 316.152 554.055 318.864 550.709 318.864H323.646C320.3 318.864 317.587 316.152 317.587 312.806V294.631Z" fill="white"/>
<path d="M323.646 288.951H550.709C553.846 288.951 556.388 291.494 556.388 294.631V312.806C556.388 315.943 553.846 318.485 550.709 318.485H323.646C320.509 318.485 317.966 315.943 317.966 312.806V294.631C317.966 291.494 320.509 288.951 323.646 288.951Z" stroke="#222222" stroke-opacity="0.1" stroke-width="0.757282"/>
<path d="M335.59 301.11C335.539 300.673 335.329 300.335 334.962 300.094C334.595 299.853 334.145 299.733 333.611 299.733C333.221 299.733 332.88 299.796 332.587 299.922C332.297 300.048 332.071 300.222 331.907 300.443C331.746 300.663 331.666 300.914 331.666 301.196C331.666 301.431 331.722 301.633 331.834 301.802C331.949 301.969 332.095 302.108 332.273 302.22C332.451 302.329 332.637 302.419 332.832 302.491C333.027 302.56 333.207 302.615 333.37 302.658L334.265 302.899C334.494 302.96 334.75 303.043 335.031 303.149C335.315 303.255 335.586 303.4 335.844 303.584C336.105 303.764 336.32 303.997 336.49 304.281C336.659 304.565 336.743 304.913 336.743 305.326C336.743 305.802 336.619 306.233 336.369 306.617C336.122 307.001 335.761 307.307 335.285 307.533C334.811 307.76 334.236 307.873 333.559 307.873C332.928 307.873 332.382 307.772 331.92 307.568C331.461 307.364 331.1 307.08 330.836 306.716C330.575 306.352 330.427 305.929 330.393 305.447H331.494C331.523 305.779 331.635 306.055 331.83 306.273C332.028 306.488 332.277 306.649 332.578 306.755C332.882 306.858 333.209 306.91 333.559 306.91C333.967 306.91 334.332 306.844 334.657 306.712C334.981 306.577 335.237 306.39 335.427 306.152C335.616 305.911 335.711 305.63 335.711 305.309C335.711 305.016 335.629 304.778 335.465 304.595C335.302 304.411 335.087 304.262 334.82 304.147C334.553 304.032 334.265 303.932 333.955 303.846L332.871 303.536C332.182 303.338 331.637 303.056 331.236 302.689C330.834 302.321 330.633 301.841 330.633 301.247C330.633 300.754 330.767 300.324 331.034 299.956C331.303 299.586 331.665 299.299 332.118 299.096C332.574 298.889 333.083 298.786 333.645 298.786C334.213 298.786 334.718 298.888 335.16 299.092C335.602 299.292 335.952 299.568 336.21 299.918C336.471 300.268 336.609 300.665 336.623 301.11H335.59ZM341.131 307.856C340.494 307.856 339.945 307.716 339.483 307.435C339.024 307.151 338.67 306.755 338.42 306.247C338.174 305.736 338.05 305.143 338.05 304.466C338.05 303.789 338.174 303.192 338.42 302.676C338.67 302.157 339.017 301.752 339.462 301.462C339.909 301.17 340.431 301.023 341.028 301.023C341.372 301.023 341.712 301.081 342.048 301.196C342.383 301.31 342.689 301.497 342.964 301.755C343.239 302.01 343.459 302.349 343.622 302.77C343.786 303.192 343.868 303.711 343.868 304.328V304.758H338.773V303.88H342.835C342.835 303.508 342.76 303.175 342.611 302.882C342.465 302.59 342.256 302.359 341.983 302.189C341.713 302.02 341.395 301.936 341.028 301.936C340.623 301.936 340.273 302.036 339.978 302.237C339.685 302.435 339.46 302.693 339.302 303.011C339.145 303.33 339.066 303.671 339.066 304.035V304.621C339.066 305.12 339.152 305.543 339.324 305.89C339.499 306.234 339.741 306.497 340.051 306.677C340.361 306.855 340.721 306.944 341.131 306.944C341.398 306.944 341.639 306.907 341.854 306.832C342.072 306.755 342.26 306.64 342.418 306.488C342.575 306.333 342.697 306.141 342.783 305.911L343.764 306.187C343.661 306.519 343.488 306.812 343.244 307.064C343 307.314 342.699 307.509 342.34 307.65C341.982 307.787 341.579 307.856 341.131 307.856ZM346.428 298.907V307.719H345.412V298.907H346.428ZM351.059 307.856C350.422 307.856 349.872 307.716 349.411 307.435C348.952 307.151 348.597 306.755 348.348 306.247C348.101 305.736 347.978 305.143 347.978 304.466C347.978 303.789 348.101 303.192 348.348 302.676C348.597 302.157 348.945 301.752 349.389 301.462C349.837 301.17 350.359 301.023 350.955 301.023C351.3 301.023 351.639 301.081 351.975 301.196C352.311 301.31 352.616 301.497 352.892 301.755C353.167 302.01 353.386 302.349 353.55 302.77C353.713 303.192 353.795 303.711 353.795 304.328V304.758H348.701V303.88H352.762C352.762 303.508 352.688 303.175 352.539 302.882C352.392 302.59 352.183 302.359 351.911 302.189C351.641 302.02 351.322 301.936 350.955 301.936C350.551 301.936 350.201 302.036 349.905 302.237C349.613 302.435 349.388 302.693 349.23 303.011C349.072 303.33 348.993 303.671 348.993 304.035V304.621C348.993 305.12 349.079 305.543 349.251 305.89C349.426 306.234 349.669 306.497 349.979 306.677C350.288 306.855 350.648 306.944 351.059 306.944C351.325 306.944 351.566 306.907 351.781 306.832C351.999 306.755 352.187 306.64 352.345 306.488C352.503 306.333 352.625 306.141 352.711 305.911L353.692 306.187C353.589 306.519 353.415 306.812 353.171 307.064C352.927 307.314 352.626 307.509 352.268 307.65C351.909 307.787 351.506 307.856 351.059 307.856ZM358.025 307.856C357.405 307.856 356.872 307.71 356.424 307.417C355.977 307.125 355.632 306.722 355.391 306.208C355.15 305.695 355.03 305.108 355.03 304.448C355.03 303.777 355.153 303.185 355.4 302.671C355.65 302.155 355.997 301.752 356.441 301.462C356.889 301.17 357.411 301.023 358.007 301.023C358.472 301.023 358.891 301.11 359.264 301.282C359.637 301.454 359.942 301.695 360.18 302.004C360.418 302.314 360.566 302.676 360.624 303.089H359.608C359.531 302.788 359.359 302.521 359.092 302.288C358.828 302.053 358.472 301.936 358.025 301.936C357.629 301.936 357.282 302.039 356.983 302.245C356.688 302.449 356.457 302.737 356.291 303.11C356.127 303.48 356.045 303.915 356.045 304.414C356.045 304.925 356.126 305.369 356.286 305.748C356.45 306.126 356.679 306.421 356.975 306.63C357.273 306.839 357.623 306.944 358.025 306.944C358.289 306.944 358.528 306.898 358.743 306.806C358.958 306.715 359.141 306.583 359.29 306.41C359.439 306.238 359.545 306.032 359.608 305.791H360.624C360.566 306.181 360.424 306.532 360.198 306.845C359.974 307.155 359.677 307.402 359.307 307.585C358.94 307.766 358.512 307.856 358.025 307.856ZM364.982 301.11V301.97H361.557V301.11H364.982ZM362.555 299.526H363.571V305.825C363.571 306.112 363.613 306.327 363.696 306.471C363.782 306.611 363.891 306.706 364.023 306.755C364.158 306.801 364.3 306.824 364.449 306.824C364.561 306.824 364.652 306.818 364.724 306.806C364.796 306.792 364.853 306.781 364.896 306.772L365.103 307.684C365.034 307.71 364.938 307.736 364.814 307.762C364.691 307.79 364.535 307.805 364.345 307.805C364.059 307.805 363.777 307.743 363.502 307.62C363.23 307.496 363.003 307.308 362.822 307.056C362.644 306.803 362.555 306.485 362.555 306.101V299.526Z" fill="#6D7486" style="mix-blend-mode:plus-darker"/>
<path d="M533.291 301.825L537.077 305.612L540.864 301.825" stroke="#6D7486" stroke-opacity="0.7" stroke-width="1.51456" stroke-linecap="round" stroke-linejoin="round"/>
</g>
</g>
<defs>
<filter id="filter0_d_34_1370" x="0" y="0" width="617" height="379.097" filterUnits="userSpaceOnUse" color-interpolation-filters="sRGB">
<feFlood flood-opacity="0" result="BackgroundImageFix"/>
<feColorMatrix in="SourceAlpha" type="matrix" values="0 0 0 0 0 0 0 0 0 0 0 0 0 0 0 0 0 0 127 0" result="hardAlpha"/>
<feMorphology radius="4" operator="dilate" in="SourceAlpha" result="effect1_dropShadow_34_1370"/>
<feOffset/>
<feGaussianBlur stdDeviation="16"/>
<feComposite in2="hardAlpha" operator="out"/>
<feColorMatrix type="matrix" values="0 0 0 0 0 0 0 0 0 0 0 0 0 0 0 0 0 0 0.07 0"/>
<feBlend mode="normal" in2="BackgroundImageFix" result="effect1_dropShadow_34_1370"/>
<feBlend mode="normal" in="SourceGraphic" in2="effect1_dropShadow_34_1370" result="shape"/>
</filter>
<filter id="filter1_dddd_34_1370" x="57.9611" y="130.981" width="501.078" height="35.5922" filterUnits="userSpaceOnUse" color-interpolation-filters="sRGB">
<feFlood flood-opacity="0" result="BackgroundImageFix"/>
<feColorMatrix in="SourceAlpha" type="matrix" values="0 0 0 0 0 0 0 0 0 0 0 0 0 0 0 0 0 0 127 0" result="hardAlpha"/>
<feOffset/>
<feGaussianBlur stdDeviation="0.378641"/>
<feColorMatrix type="matrix" values="0 0 0 0 0 0 0 0 0 0 0 0 0 0 0 0 0 0 0.1 0"/>
<feBlend mode="normal" in2="BackgroundImageFix" result="effect1_dropShadow_34_1370"/>
<feColorMatrix in="SourceAlpha" type="matrix" values="0 0 0 0 0 0 0 0 0 0 0 0 0 0 0 0 0 0 127 0" result="hardAlpha"/>
<feOffset/>
<feGaussianBlur stdDeviation="0.757282"/>
<feColorMatrix type="matrix" values="0 0 0 0 0 0 0 0 0 0 0 0 0 0 0 0 0 0 0.09 0"/>
<feBlend mode="normal" in2="effect1_dropShadow_34_1370" result="effect2_dropShadow_34_1370"/>
<feColorMatrix in="SourceAlpha" type="matrix" values="0 0 0 0 0 0 0 0 0 0 0 0 0 0 0 0 0 0 127 0" result="hardAlpha"/>
<feOffset dy="0.757282"/>
<feGaussianBlur stdDeviation="0.757282"/>
<feColorMatrix type="matrix" values="0 0 0 0 0 0 0 0 0 0 0 0 0 0 0 0 0 0 0.05 0"/>
<feBlend mode="normal" in2="effect2_dropShadow_34_1370" result="effect3_dropShadow_34_1370"/>
<feColorMatrix in="SourceAlpha" type="matrix" values="0 0 0 0 0 0 0 0 0 0 0 0 0 0 0 0 0 0 127 0" result="hardAlpha"/>
<feOffset dy="1.51456"/>
<feGaussianBlur stdDeviation="1.13592"/>
<feColorMatrix type="matrix" values="0 0 0 0 0 0 0 0 0 0 0 0 0 0 0 0 0 0 0.01 0"/>
<feBlend mode="normal" in2="effect3_dropShadow_34_1370" result="effect4_dropShadow_34_1370"/>
<feBlend mode="normal" in="SourceGraphic" in2="effect4_dropShadow_34_1370" result="shape"/>
</filter>
<filter id="filter2_dddd_34_1370" x="57.9611" y="287.058" width="243.723" height="35.5922" filterUnits="userSpaceOnUse" color-interpolation-filters="sRGB">
<feFlood flood-opacity="0" result="BackgroundImageFix"/>
<feColorMatrix in="SourceAlpha" type="matrix" values="0 0 0 0 0 0 0 0 0 0 0 0 0 0 0 0 0 0 127 0" result="hardAlpha"/>
<feOffset/>
<feGaussianBlur stdDeviation="0.378641"/>
<feColorMatrix type="matrix" values="0 0 0 0 0 0 0 0 0 0 0 0 0 0 0 0 0 0 0.1 0"/>
<feBlend mode="normal" in2="BackgroundImageFix" result="effect1_dropShadow_34_1370"/>
<feColorMatrix in="SourceAlpha" type="matrix" values="0 0 0 0 0 0 0 0 0 0 0 0 0 0 0 0 0 0 127 0" result="hardAlpha"/>
<feOffset/>
<feGaussianBlur stdDeviation="0.757282"/>
<feColorMatrix type="matrix" values="0 0 0 0 0 0 0 0 0 0 0 0 0 0 0 0 0 0 0.09 0"/>
<feBlend mode="normal" in2="effect1_dropShadow_34_1370" result="effect2_dropShadow_34_1370"/>
<feColorMatrix in="SourceAlpha" type="matrix" values="0 0 0 0 0 0 0 0 0 0 0 0 0 0 0 0 0 0 127 0" result="hardAlpha"/>
<feOffset dy="0.757282"/>
<feGaussianBlur stdDeviation="0.757282"/>
<feColorMatrix type="matrix" values="0 0 0 0 0 0 0 0 0 0 0 0 0 0 0 0 0 0 0.05 0"/>
<feBlend mode="normal" in2="effect2_dropShadow_34_1370" result="effect3_dropShadow_34_1370"/>
<feColorMatrix in="SourceAlpha" type="matrix" values="0 0 0 0 0 0 0 0 0 0 0 0 0 0 0 0 0 0 127 0" result="hardAlpha"/>
<feOffset dy="1.51456"/>
<feGaussianBlur stdDeviation="1.13592"/>
<feColorMatrix type="matrix" values="0 0 0 0 0 0 0 0 0 0 0 0 0 0 0 0 0 0 0.01 0"/>
<feBlend mode="normal" in2="effect3_dropShadow_34_1370" result="effect4_dropShadow_34_1370"/>
<feBlend mode="normal" in="SourceGraphic" in2="effect4_dropShadow_34_1370" result="shape"/>
</filter>
<filter id="filter3_dddd_34_1370" x="315.316" y="287.058" width="243.723" height="35.5922" filterUnits="userSpaceOnUse" color-interpolation-filters="sRGB">
<feFlood flood-opacity="0" result="BackgroundImageFix"/>
<feColorMatrix in="SourceAlpha" type="matrix" values="0 0 0 0 0 0 0 0 0 0 0 0 0 0 0 0 0 0 127 0" result="hardAlpha"/>
<feOffset/>
<feGaussianBlur stdDeviation="0.378641"/>
<feColorMatrix type="matrix" values="0 0 0 0 0 0 0 0 0 0 0 0 0 0 0 0 0 0 0.1 0"/>
<feBlend mode="normal" in2="BackgroundImageFix" result="effect1_dropShadow_34_1370"/>
<feColorMatrix in="SourceAlpha" type="matrix" values="0 0 0 0 0 0 0 0 0 0 0 0 0 0 0 0 0 0 127 0" result="hardAlpha"/>
<feOffset/>
<feGaussianBlur stdDeviation="0.757282"/>
<feColorMatrix type="matrix" values="0 0 0 0 0 0 0 0 0 0 0 0 0 0 0 0 0 0 0.09 0"/>
<feBlend mode="normal" in2="effect1_dropShadow_34_1370" result="effect2_dropShadow_34_1370"/>
<feColorMatrix in="SourceAlpha" type="matrix" values="0 0 0 0 0 0 0 0 0 0 0 0 0 0 0 0 0 0 127 0" result="hardAlpha"/>
<feOffset dy="0.757282"/>
<feGaussianBlur stdDeviation="0.757282"/>
<feColorMatrix type="matrix" values="0 0 0 0 0 0 0 0 0 0 0 0 0 0 0 0 0 0 0.05 0"/>
<feBlend mode="normal" in2="effect2_dropShadow_34_1370" result="effect3_dropShadow_34_1370"/>
<feColorMatrix in="SourceAlpha" type="matrix" values="0 0 0 0 0 0 0 0 0 0 0 0 0 0 0 0 0 0 127 0" result="hardAlpha"/>
<feOffset dy="1.51456"/>
<feGaussianBlur stdDeviation="1.13592"/>
<feColorMatrix type="matrix" values="0 0 0 0 0 0 0 0 0 0 0 0 0 0 0 0 0 0 0.01 0"/>
<feBlend mode="normal" in2="effect3_dropShadow_34_1370" result="effect4_dropShadow_34_1370"/>
<feBlend mode="normal" in="SourceGraphic" in2="effect4_dropShadow_34_1370" result="shape"/>
</filter>
<linearGradient id="paint0_linear_34_1370" x1="535.403" y1="182.941" x2="533.289" y2="198.146" gradientUnits="userSpaceOnUse">
<stop offset="0.0192796" stop-color="#2E78E9"/>
<stop offset="0.972407" stop-color="#2863FA"/>
</linearGradient>
<radialGradient id="paint1_radial_34_1370" cx="0" cy="0" r="1" gradientUnits="userSpaceOnUse" gradientTransform="translate(535.132 197.341) rotate(-90.25) scale(20.7002 42.2422)">
<stop stop-color="white" stop-opacity="0"/>
<stop offset="1" stop-color="white" stop-opacity="0.1"/>
</radialGradient>
</defs>
</svg>
