<svg width="838" height="829" viewBox="0 0 838 829" fill="none" xmlns="http://www.w3.org/2000/svg">
<g filter="url(#filter0_d_71_1513)">
<path d="M834.999 426.037C834.999 653.093 643.1 825.692 415.764 826C196.362 826.308 16.9431 658.631 3.76979 439.959C-10.6361 201.135 179.029 3 415.148 3C517.992 3 611.9 40.535 684.084 102.76C288.036 112.605 91.3609 495.723 326.555 602.944C447.811 658.246 534.17 562.025 542.259 456.804C565.37 156.832 680.925 179.907 742.555 202.981C742.555 202.981 773.37 226.056 788.777 249.131C804.185 272.206 834.999 369.427 834.999 426.037Z" fill="#A6C5F3"/>
<path d="M4.5884 439.91L3.76979 439.959L4.5884 439.91C-9.78884 201.562 179.497 3.82009 415.148 3.82009C517.023 3.82009 610.111 40.7235 681.934 101.997C484.718 107.574 337.09 205.638 267.909 315.9C233.197 371.226 218.204 429.676 226.693 481.075C235.188 532.51 267.184 576.779 326.215 603.69C387.112 631.464 439.348 621.207 477.358 590.71C515.323 560.248 539.018 509.661 543.076 456.867C554.629 306.918 589.277 238.027 628.446 209.412C667.513 180.872 711.374 192.195 742.156 203.708C742.214 203.751 742.299 203.815 742.408 203.899C742.636 204.072 742.973 204.33 743.407 204.666C744.276 205.339 745.535 206.327 747.096 207.586C750.217 210.102 754.538 213.698 759.34 218.013C768.955 226.652 780.449 238.135 788.095 249.586C791.893 255.273 796.681 265.602 801.733 278.839C806.779 292.057 812.068 308.118 816.877 325.23C826.5 359.474 834.179 397.846 834.179 426.037C834.179 652.59 642.699 824.873 415.763 825.18C196.792 825.487 17.7354 658.145 4.5884 439.91Z" stroke="black" stroke-opacity="0.05" stroke-width="1.64019"/>
</g>
<path d="M384.332 549.17C437.515 549.17 480.629 506.124 480.629 453.025C480.629 399.926 437.515 356.88 384.332 356.88C331.149 356.88 288.036 399.926 288.036 453.025C288.036 506.124 331.149 549.17 384.332 549.17Z" fill="#A6C5F3"/>
<defs>
<filter id="filter0_d_71_1513" x="0.3757" y="0.3757" width="837.248" height="828.249" filterUnits="userSpaceOnUse" color-interpolation-filters="sRGB">
<feFlood flood-opacity="0" result="BackgroundImageFix"/>
<feColorMatrix in="SourceAlpha" type="matrix" values="0 0 0 0 0 0 0 0 0 0 0 0 0 0 0 0 0 0 127 0" result="hardAlpha"/>
<feOffset/>
<feGaussianBlur stdDeviation="1.31215"/>
<feComposite in2="hardAlpha" operator="out"/>
<feColorMatrix type="matrix" values="0 0 0 0 0 0 0 0 0 0 0 0 0 0 0 0 0 0 0.04 0"/>
<feBlend mode="normal" in2="BackgroundImageFix" result="effect1_dropShadow_71_1513"/>
<feBlend mode="normal" in="SourceGraphic" in2="effect1_dropShadow_71_1513" result="shape"/>
</filter>
</defs>
</svg>
