<svg width="721" height="567" viewBox="0 0 721 567" fill="none" xmlns="http://www.w3.org/2000/svg">
<mask id="mask0_60_2273" style="mask-type:alpha" maskUnits="userSpaceOnUse" x="56" y="70" width="609" height="497">
<rect x="56" y="70" width="609" height="497" fill="url(#paint0_radial_60_2273)"/>
</mask>
<g mask="url(#mask0_60_2273)">
<line x1="70.5664" y1="70" x2="70.5664" y2="567" stroke="black" stroke-opacity="0.1"/>
<line x1="92.1875" y1="70" x2="92.1875" y2="567" stroke="black" stroke-opacity="0.1"/>
<line x1="113.81" y1="70" x2="113.81" y2="567" stroke="black" stroke-opacity="0.1"/>
<line x1="135.431" y1="70" x2="135.431" y2="567" stroke="black" stroke-opacity="0.1"/>
<line x1="157.052" y1="70" x2="157.052" y2="567" stroke="black" stroke-opacity="0.1"/>
<line x1="178.673" y1="70" x2="178.673" y2="567" stroke="black" stroke-opacity="0.1"/>
<line x1="200.294" y1="70" x2="200.294" y2="567" stroke="black" stroke-opacity="0.1"/>
<line x1="221.916" y1="70" x2="221.916" y2="567" stroke="black" stroke-opacity="0.1"/>
<line x1="243.537" y1="70" x2="243.537" y2="567" stroke="black" stroke-opacity="0.1"/>
<line x1="265.158" y1="70" x2="265.158" y2="567" stroke="black" stroke-opacity="0.1"/>
<line x1="286.779" y1="70" x2="286.779" y2="567" stroke="black" stroke-opacity="0.1"/>
<line x1="308.401" y1="70" x2="308.401" y2="567" stroke="black" stroke-opacity="0.1"/>
<line x1="330.022" y1="70" x2="330.022" y2="567" stroke="black" stroke-opacity="0.1"/>
<line x1="351.644" y1="70" x2="351.644" y2="567" stroke="black" stroke-opacity="0.1"/>
<line x1="373.265" y1="70" x2="373.265" y2="567" stroke="black" stroke-opacity="0.1"/>
<line x1="394.886" y1="70" x2="394.886" y2="567" stroke="black" stroke-opacity="0.1"/>
<line x1="416.508" y1="70" x2="416.508" y2="567" stroke="black" stroke-opacity="0.1"/>
<line x1="438.129" y1="70" x2="438.129" y2="567" stroke="black" stroke-opacity="0.1"/>
<line x1="459.75" y1="70" x2="459.75" y2="567" stroke="black" stroke-opacity="0.1"/>
<line x1="481.372" y1="70" x2="481.372" y2="567" stroke="black" stroke-opacity="0.1"/>
<line x1="502.993" y1="70" x2="502.993" y2="567" stroke="black" stroke-opacity="0.1"/>
<line x1="524.614" y1="70" x2="524.614" y2="567" stroke="black" stroke-opacity="0.1"/>
<line x1="546.235" y1="70" x2="546.235" y2="567" stroke="black" stroke-opacity="0.1"/>
<line x1="567.856" y1="70" x2="567.856" y2="567" stroke="black" stroke-opacity="0.1"/>
<line x1="589.478" y1="70" x2="589.478" y2="567" stroke="black" stroke-opacity="0.1"/>
<line x1="611.099" y1="70" x2="611.099" y2="567" stroke="black" stroke-opacity="0.1"/>
</g>
<mask id="mask1_60_2273" style="mask-type:alpha" maskUnits="userSpaceOnUse" x="75" y="117" width="536" height="403">
<rect x="75.6445" y="520" width="403" height="534.953" transform="rotate(-90 75.6445 520)" fill="url(#paint1_radial_60_2273)"/>
</mask>
<g mask="url(#mask1_60_2273)">
<line x1="76" y1="504.5" x2="665" y2="504.5" stroke="black" stroke-opacity="0.1"/>
<line x1="76" y1="488.5" x2="665" y2="488.5" stroke="black" stroke-opacity="0.1"/>
<line x1="76" y1="472.5" x2="665" y2="472.5" stroke="black" stroke-opacity="0.1"/>
<line x1="76" y1="456.5" x2="665" y2="456.5" stroke="black" stroke-opacity="0.1"/>
<line x1="76" y1="440.5" x2="665" y2="440.5" stroke="black" stroke-opacity="0.1"/>
<line x1="76" y1="424.5" x2="665" y2="424.5" stroke="black" stroke-opacity="0.1"/>
<line x1="76" y1="408.5" x2="665" y2="408.5" stroke="black" stroke-opacity="0.1"/>
<line x1="76" y1="392.5" x2="665" y2="392.5" stroke="black" stroke-opacity="0.1"/>
<line x1="76" y1="376.5" x2="665" y2="376.5" stroke="black" stroke-opacity="0.1"/>
<line x1="76" y1="360.5" x2="665" y2="360.5" stroke="black" stroke-opacity="0.1"/>
<line x1="76" y1="344.5" x2="665" y2="344.5" stroke="black" stroke-opacity="0.1"/>
<line x1="76" y1="328.5" x2="665" y2="328.5" stroke="black" stroke-opacity="0.1"/>
<line x1="76" y1="312.5" x2="665" y2="312.5" stroke="black" stroke-opacity="0.1"/>
<line x1="76" y1="296.5" x2="665" y2="296.5" stroke="black" stroke-opacity="0.1"/>
<line x1="76" y1="280.5" x2="665" y2="280.5" stroke="black" stroke-opacity="0.1"/>
<line x1="76" y1="264.5" x2="665" y2="264.5" stroke="black" stroke-opacity="0.1"/>
<line x1="76" y1="248.5" x2="665" y2="248.5" stroke="black" stroke-opacity="0.1"/>
<line x1="76" y1="232.5" x2="665" y2="232.5" stroke="black" stroke-opacity="0.1"/>
<line x1="76" y1="216.5" x2="665" y2="216.5" stroke="black" stroke-opacity="0.1"/>
<line x1="76" y1="200.5" x2="665" y2="200.5" stroke="black" stroke-opacity="0.1"/>
<line x1="76" y1="184.5" x2="665" y2="184.5" stroke="black" stroke-opacity="0.1"/>
<line x1="76" y1="168.5" x2="665" y2="168.5" stroke="black" stroke-opacity="0.1"/>
<line x1="76" y1="152.5" x2="665" y2="152.5" stroke="black" stroke-opacity="0.1"/>
</g>
<g style="mix-blend-mode:darken" opacity="0.2" filter="url(#filter0_f_60_2273)">
<ellipse cx="360.5" cy="277.5" rx="260.5" ry="177.5" fill="url(#paint2_linear_60_2273)"/>
</g>
<path d="M285 345L272 269.5L272.5 267L361 320.5V372L359.5 391.5L285 345Z" fill="#E1D3DE"/>
<path d="M449 267L435.5 346L360.5 391.5V320.5L449 267Z" fill="#FD8B4D" fill-opacity="0.15"/>
<path d="M438.367 237.073C437.124 238.316 437.582 240.803 439.403 242.624C441.214 244.434 443.7 244.903 444.944 243.649L483.616 204.976C484.86 203.733 484.402 201.247 482.591 199.425C480.77 197.615 478.294 197.146 477.04 198.389L438.367 237.073Z" fill="url(#paint3_linear_60_2273)"/>
<path d="M438.367 237.073C437.124 238.316 437.582 240.803 439.403 242.624C441.214 244.434 443.7 244.903 444.944 243.649L483.616 204.976C484.86 203.733 484.402 201.247 482.591 199.425C480.77 197.615 478.294 197.146 477.04 198.389L438.367 237.073Z" fill="url(#paint4_radial_60_2273)"/>
<path d="M432.16 195.74C431.822 196.798 433.523 198.292 435.977 199.077C438.42 199.862 440.677 199.633 441.026 198.575L451.55 165.749C451.888 164.691 450.187 163.197 447.733 162.412C445.29 161.626 443.022 161.845 442.684 162.902L432.16 195.74Z" fill="url(#paint5_linear_60_2273)"/>
<path d="M432.16 195.74C431.822 196.798 433.523 198.292 435.977 199.077C438.42 199.862 440.677 199.633 441.026 198.575L451.55 165.749C451.888 164.691 450.187 163.197 447.733 162.412C445.29 161.626 443.022 161.845 442.684 162.902L432.16 195.74Z" fill="url(#paint6_radial_60_2273)"/>
<path d="M477.191 180.744C477.191 191.541 460.996 191.541 460.996 180.744C460.996 169.948 477.191 169.948 477.191 180.744Z" fill="url(#paint7_linear_60_2273)"/>
<path d="M477.191 180.744C477.191 191.541 460.996 191.541 460.996 180.744C460.996 169.948 477.191 169.948 477.191 180.744Z" fill="url(#paint8_radial_60_2273)"/>
<path d="M282.633 237.073C283.876 238.316 283.418 240.803 281.597 242.624C279.787 244.434 277.3 244.903 276.057 243.649L237.384 204.976C236.141 203.733 236.599 201.247 238.409 199.425C240.23 197.615 242.706 197.146 243.96 198.389L282.633 237.073Z" fill="url(#paint9_linear_60_2273)"/>
<path d="M282.633 237.073C283.876 238.316 283.418 240.803 281.597 242.624C279.787 244.434 277.3 244.903 276.057 243.649L237.384 204.976C236.141 203.733 236.599 201.247 238.409 199.425C240.23 197.615 242.706 197.146 243.96 198.389L282.633 237.073Z" fill="url(#paint10_radial_60_2273)"/>
<path d="M288.837 195.74C289.175 196.798 287.474 198.292 285.02 199.077C282.577 199.862 280.32 199.633 279.971 198.575L269.447 165.749C269.109 164.691 270.81 163.197 273.264 162.412C275.707 161.626 277.975 161.845 278.313 162.902L288.837 195.74Z" fill="url(#paint11_linear_60_2273)"/>
<path d="M288.837 195.74C289.175 196.798 287.474 198.292 285.02 199.077C282.577 199.862 280.32 199.633 279.971 198.575L269.447 165.749C269.109 164.691 270.81 163.197 273.264 162.412C275.707 161.626 277.975 161.845 278.313 162.902L288.837 195.74Z" fill="url(#paint12_radial_60_2273)"/>
<path d="M260.004 180.744C260.004 191.541 243.809 191.541 243.809 180.744C243.809 169.948 260.004 169.948 260.004 180.744Z" fill="url(#paint13_linear_60_2273)"/>
<path d="M260.004 180.744C260.004 191.541 243.809 191.541 243.809 180.744C243.809 169.948 260.004 169.948 260.004 180.744Z" fill="url(#paint14_radial_60_2273)"/>
<path d="M449.763 265.449C449.534 265.308 448.814 265.068 448.683 264.991L418.704 247.706C422.619 239.396 424.823 230.115 424.823 220.322C424.823 184.801 396.033 156 360.501 156C324.98 156 296.179 184.79 296.179 220.322C296.179 230.071 298.36 239.298 302.243 247.575L272.035 264.991C271.871 265.079 271.37 265.373 271.25 265.449C270.813 265.7 270.552 266.158 270.552 266.66L284.511 346.292C284.511 346.794 284.773 347.252 285.209 347.503L359.498 392.815C359.716 392.935 359.956 393 360.196 393C360.305 393 360.403 392.945 360.501 392.913C360.61 392.935 360.708 393 360.806 393C361.046 393 361.286 392.935 361.504 392.815L435.804 347.503C436.229 347.252 436.502 346.794 436.502 346.292L450.461 266.66C450.461 266.158 450.199 265.7 449.763 265.449ZM343.684 196.524C352.953 196.524 360.478 204.027 360.489 213.297C360.511 204.027 368.025 196.524 377.306 196.524C386.586 196.524 394.122 204.049 394.122 213.341C394.133 241.379 360.5 256.757 360.5 256.757C360.5 256.757 326.877 241.38 326.877 213.341C326.867 204.049 334.403 196.524 343.684 196.524ZM358.799 389.185L287.291 345.498L273.332 269.082L358.788 321.155L358.799 389.185ZM360.5 318.908L274.726 266.658L303.474 250.082C314.227 270.617 335.723 284.642 360.5 284.642C385.235 284.642 406.686 270.672 417.449 250.213L446.121 266.746L360.5 318.908ZM433.711 345.496L362.203 389.183V321.154L447.659 269.08L433.711 345.496Z" fill="url(#paint15_linear_60_2273)"/>
<path d="M449.763 265.449C449.534 265.308 448.814 265.068 448.683 264.991L418.704 247.706C422.619 239.396 424.823 230.115 424.823 220.322C424.823 184.801 396.033 156 360.501 156C324.98 156 296.179 184.79 296.179 220.322C296.179 230.071 298.36 239.298 302.243 247.575L272.035 264.991C271.871 265.079 271.37 265.373 271.25 265.449C270.813 265.7 270.552 266.158 270.552 266.66L284.511 346.292C284.511 346.794 284.773 347.252 285.209 347.503L359.498 392.815C359.716 392.935 359.956 393 360.196 393C360.305 393 360.403 392.945 360.501 392.913C360.61 392.935 360.708 393 360.806 393C361.046 393 361.286 392.935 361.504 392.815L435.804 347.503C436.229 347.252 436.502 346.794 436.502 346.292L450.461 266.66C450.461 266.158 450.199 265.7 449.763 265.449ZM343.684 196.524C352.953 196.524 360.478 204.027 360.489 213.297C360.511 204.027 368.025 196.524 377.306 196.524C386.586 196.524 394.122 204.049 394.122 213.341C394.133 241.379 360.5 256.757 360.5 256.757C360.5 256.757 326.877 241.38 326.877 213.341C326.867 204.049 334.403 196.524 343.684 196.524ZM358.799 389.185L287.291 345.498L273.332 269.082L358.788 321.155L358.799 389.185ZM360.5 318.908L274.726 266.658L303.474 250.082C314.227 270.617 335.723 284.642 360.5 284.642C385.235 284.642 406.686 270.672 417.449 250.213L446.121 266.746L360.5 318.908ZM433.711 345.496L362.203 389.183V321.154L447.659 269.08L433.711 345.496Z" fill="url(#paint16_radial_60_2273)"/>
<defs>
<filter id="filter0_f_60_2273" x="0" y="0" width="721" height="555" filterUnits="userSpaceOnUse" color-interpolation-filters="sRGB">
<feFlood flood-opacity="0" result="BackgroundImageFix"/>
<feBlend mode="normal" in="SourceGraphic" in2="BackgroundImageFix" result="shape"/>
<feGaussianBlur stdDeviation="50" result="effect1_foregroundBlur_60_2273"/>
</filter>
<radialGradient id="paint0_radial_60_2273" cx="0" cy="0" r="1" gradientUnits="userSpaceOnUse" gradientTransform="translate(360.5 318.5) rotate(90) scale(248.5 304.5)">
<stop stop-color="#D9D9D9" stop-opacity="0"/>
<stop offset="0.420155" stop-color="#D9D9D9" stop-opacity="0.579845"/>
<stop offset="1" stop-color="#D9D9D9" stop-opacity="0"/>
</radialGradient>
<radialGradient id="paint1_radial_60_2273" cx="0" cy="0" r="1" gradientUnits="userSpaceOnUse" gradientTransform="translate(277.145 787.476) rotate(90) scale(267.476 201.5)">
<stop stop-color="#D9D9D9" stop-opacity="0"/>
<stop offset="0.420155" stop-color="#D9D9D9" stop-opacity="0.579845"/>
<stop offset="1" stop-color="#D9D9D9" stop-opacity="0"/>
</radialGradient>
<linearGradient id="paint2_linear_60_2273" x1="442.92" y1="196.553" x2="272.451" y2="197.343" gradientUnits="userSpaceOnUse">
<stop stop-color="#1663FA"/>
<stop offset="1" stop-color="#FE5674"/>
</linearGradient>
<linearGradient id="paint3_linear_60_2273" x1="461.139" y1="202.826" x2="449.119" y2="239.01" gradientUnits="userSpaceOnUse">
<stop offset="0.0192796" stop-color="#FD8240"/>
<stop offset="0.972407" stop-color="#EE4B2F"/>
</linearGradient>
<radialGradient id="paint4_radial_60_2273" cx="0" cy="0" r="1" gradientUnits="userSpaceOnUse" gradientTransform="translate(460.845 240.154) rotate(-90.1046) scale(53.6592 45.8256)">
<stop stop-color="white" stop-opacity="0"/>
<stop offset="1" stop-color="white" stop-opacity="0.1"/>
</radialGradient>
<linearGradient id="paint5_linear_60_2273" x1="441.917" y1="166.077" x2="427.204" y2="189.022" gradientUnits="userSpaceOnUse">
<stop offset="0.0192796" stop-color="#FD8240"/>
<stop offset="0.972407" stop-color="#EE4B2F"/>
</linearGradient>
<radialGradient id="paint6_radial_60_2273" cx="0" cy="0" r="1" gradientUnits="userSpaceOnUse" gradientTransform="translate(441.794 196.16) rotate(-90.0542) scale(43.2446 19.1328)">
<stop stop-color="white" stop-opacity="0"/>
<stop offset="1" stop-color="white" stop-opacity="0.1"/>
</radialGradient>
<linearGradient id="paint7_linear_60_2273" x1="469.144" y1="174.428" x2="464.973" y2="186.988" gradientUnits="userSpaceOnUse">
<stop offset="0.0192796" stop-color="#FD8240"/>
<stop offset="0.972407" stop-color="#EE4B2F"/>
</linearGradient>
<radialGradient id="paint8_radial_60_2273" cx="0" cy="0" r="1" gradientUnits="userSpaceOnUse" gradientTransform="translate(469.042 187.384) rotate(-90.1047) scale(18.6243 15.9097)">
<stop stop-color="white" stop-opacity="0"/>
<stop offset="1" stop-color="white" stop-opacity="0.1"/>
</radialGradient>
<linearGradient id="paint9_linear_60_2273" x1="260.155" y1="202.826" x2="248.136" y2="239.01" gradientUnits="userSpaceOnUse">
<stop offset="0.0192796" stop-color="#FD8240"/>
<stop offset="0.972407" stop-color="#EE4B2F"/>
</linearGradient>
<radialGradient id="paint10_radial_60_2273" cx="0" cy="0" r="1" gradientUnits="userSpaceOnUse" gradientTransform="translate(259.861 240.154) rotate(-90.1046) scale(53.6592 45.8256)">
<stop stop-color="white" stop-opacity="0"/>
<stop offset="1" stop-color="white" stop-opacity="0.1"/>
</radialGradient>
<linearGradient id="paint11_linear_60_2273" x1="279.204" y1="166.077" x2="264.491" y2="189.022" gradientUnits="userSpaceOnUse">
<stop offset="0.0192796" stop-color="#FD8240"/>
<stop offset="0.972407" stop-color="#EE4B2F"/>
</linearGradient>
<radialGradient id="paint12_radial_60_2273" cx="0" cy="0" r="1" gradientUnits="userSpaceOnUse" gradientTransform="translate(279.081 196.16) rotate(-90.0542) scale(43.2446 19.1328)">
<stop stop-color="white" stop-opacity="0"/>
<stop offset="1" stop-color="white" stop-opacity="0.1"/>
</radialGradient>
<linearGradient id="paint13_linear_60_2273" x1="251.957" y1="174.428" x2="247.786" y2="186.988" gradientUnits="userSpaceOnUse">
<stop offset="0.0192796" stop-color="#FD8240"/>
<stop offset="0.972407" stop-color="#EE4B2F"/>
</linearGradient>
<radialGradient id="paint14_radial_60_2273" cx="0" cy="0" r="1" gradientUnits="userSpaceOnUse" gradientTransform="translate(251.855 187.384) rotate(-90.1047) scale(18.6243 15.9097)">
<stop stop-color="white" stop-opacity="0"/>
<stop offset="1" stop-color="white" stop-opacity="0.1"/>
</radialGradient>
<linearGradient id="paint15_linear_60_2273" x1="361.073" y1="182.07" x2="286.14" y2="353.356" gradientUnits="userSpaceOnUse">
<stop offset="0.0192796" stop-color="#2E78E9"/>
<stop offset="0.972407" stop-color="#2863FA"/>
</linearGradient>
<radialGradient id="paint16_radial_60_2273" cx="0" cy="0" r="1" gradientUnits="userSpaceOnUse" gradientTransform="translate(359.94 371.67) rotate(-90.0795) scale(272.55 176.741)">
<stop stop-color="white" stop-opacity="0"/>
<stop offset="1" stop-color="white" stop-opacity="0.1"/>
</radialGradient>
</defs>
</svg>
