<svg width="172" height="52" viewBox="0 0 172 52" fill="none" xmlns="http://www.w3.org/2000/svg">
<g clip-path="url(#clip0_3239_1090)">
<g filter="url(#filter0_d_3239_1090)">
<path d="M52.4859 26.7221C52.4859 41.0683 40.3802 51.9737 26.0388 51.9932C12.1981 52.0126 0.87959 41.4182 0.0485616 27.6018C-0.860224 12.512 11.1046 -0.00683594 26 -0.00683594C32.4878 -0.00683594 38.4119 2.36475 42.9656 6.29634C17.9813 6.9184 5.57417 31.1251 20.4112 37.8997C28.0605 41.3939 33.5084 35.3143 34.0187 28.6661C35.4766 9.71279 42.7663 11.1707 46.6542 12.6287C46.6542 12.6287 48.5981 14.0866 49.5701 15.5446C50.542 17.0025 52.4859 23.1453 52.4859 26.7221Z" fill="url(#paint0_linear_3239_1090)"/>
<path d="M52.4859 26.7221C52.4859 41.0683 40.3802 51.9737 26.0388 51.9932C12.1981 52.0126 0.87959 41.4182 0.0485616 27.6018C-0.860224 12.512 11.1046 -0.00683594 26 -0.00683594C32.4878 -0.00683594 38.4119 2.36475 42.9656 6.29634C17.9813 6.9184 5.57417 31.1251 20.4112 37.8997C28.0605 41.3939 33.5084 35.3143 34.0187 28.6661C35.4766 9.71279 42.7663 11.1707 46.6542 12.6287C46.6542 12.6287 48.5981 14.0866 49.5701 15.5446C50.542 17.0025 52.4859 23.1453 52.4859 26.7221Z" fill="url(#paint1_radial_3239_1090)"/>
<path d="M0.867172 27.5525L0.867176 27.5525C1.67201 40.9334 12.6291 51.1919 26.0377 51.1731C39.9775 51.1542 51.6659 40.5665 51.6659 26.7221C51.6659 25.0468 51.204 22.7027 50.6029 20.5603C50.3049 19.4982 49.9783 18.5058 49.6694 17.6952C49.3533 16.8659 49.0763 16.2823 48.8877 15.9995C48.4594 15.357 47.7914 14.6826 47.199 14.1495C46.9083 13.8879 46.6465 13.6696 46.4578 13.5172C46.3729 13.4486 46.3031 13.3936 46.2526 13.3544C44.3541 12.6558 41.9905 12.1323 39.9095 13.655C37.7308 15.2491 35.5625 19.2889 34.8363 28.7288C34.8363 28.7289 34.8363 28.7289 34.8363 28.729L34.0187 28.6661C33.5084 35.3143 28.0605 41.3939 20.4112 37.8997L0.867172 27.5525ZM0.867172 27.5525C-0.0130518 12.937 11.5742 0.813258 26 0.813258C31.5168 0.813258 36.611 2.58301 40.7567 5.59165L0.867172 27.5525Z" stroke="black" stroke-opacity="0.05" stroke-width="1.64019"/>
</g>
<path d="M24.0552 34.5021C27.4102 34.5021 30.13 31.7823 30.13 28.4273C30.13 25.0723 27.4102 22.3525 24.0552 22.3525C20.7002 22.3525 17.9805 25.0723 17.9805 28.4273C17.9805 31.7823 20.7002 34.5021 24.0552 34.5021Z" fill="url(#paint2_linear_3239_1090)"/>
<path d="M24.0552 34.5021C27.4102 34.5021 30.13 31.7823 30.13 28.4273C30.13 25.0723 27.4102 22.3525 24.0552 22.3525C20.7002 22.3525 17.9805 25.0723 17.9805 28.4273C17.9805 31.7823 20.7002 34.5021 24.0552 34.5021Z" fill="url(#paint3_radial_3239_1090)"/>
</g>
<path d="M76.7955 38.3343C73.8212 38.3343 71.4484 37.6564 69.677 36.3005C67.9275 34.9227 66.8997 32.9873 66.5935 30.4942H70.694C70.8908 31.9376 71.5359 33.0638 72.6294 33.873C73.7228 34.6603 75.1553 35.0539 76.9267 35.0539C78.3919 35.0539 79.5072 34.7915 80.2726 34.2666C81.0599 33.7199 81.4536 32.9654 81.4536 32.0032C81.4536 31.1503 81.213 30.4614 80.7319 29.9365C80.2508 29.4117 79.4416 28.9852 78.3044 28.6572L74.0399 27.3778C71.8749 26.7218 70.2784 25.8579 69.2506 24.7864C68.2446 23.7148 67.7416 22.3698 67.7416 20.7515C67.7416 19.3956 68.0915 18.2147 68.7913 17.2087C69.4912 16.2027 70.4753 15.4264 71.7437 14.8796C73.034 14.3329 74.532 14.0595 76.2378 14.0595C78.8621 14.0595 80.9506 14.7047 82.5033 15.9949C84.0779 17.2634 84.9745 18.991 85.1932 21.1779H81.0927C80.8522 19.8658 80.3055 18.9035 79.4526 18.2912C78.5997 17.657 77.4515 17.3399 76.0082 17.3399C74.7397 17.3399 73.7338 17.5914 72.9902 18.0944C72.2467 18.5974 71.8749 19.2863 71.8749 20.161C71.8749 20.8827 72.0936 21.495 72.531 21.998C72.9902 22.501 73.8322 22.9384 75.0569 23.3102L79.3869 24.6223C81.552 25.2565 83.1266 26.1204 84.1107 27.2138C85.0948 28.3073 85.5869 29.696 85.5869 31.3799C85.5869 33.6106 84.8105 35.3273 83.2578 36.5301C81.7269 37.7329 79.5728 38.3343 76.7955 38.3343ZM98.7655 38.0391C98.6562 37.6017 98.5687 37.1206 98.5031 36.5957C98.4593 36.0708 98.4375 35.4366 98.4375 34.6931H98.3062V26.7546C98.3062 25.8798 98.0547 25.2237 97.5518 24.7864C97.0706 24.3271 96.3271 24.0975 95.3211 24.0975C94.337 24.0975 93.5497 24.2834 92.9592 24.6551C92.3906 25.005 92.0407 25.519 91.9095 26.1969H87.9403C88.1152 24.6442 88.8588 23.3867 90.1709 22.4245C91.4831 21.4622 93.2435 20.9811 95.4523 20.9811C97.7486 20.9811 99.4872 21.506 100.668 22.5557C101.849 23.5835 102.44 25.1035 102.44 27.1154V34.6931C102.44 35.2179 102.472 35.7537 102.538 36.3005C102.625 36.8472 102.746 37.4267 102.899 38.0391H98.7655ZM92.9592 38.3671C91.2753 38.3671 89.9304 37.9516 88.9244 37.1206C87.9403 36.2677 87.4482 35.1305 87.4482 33.709C87.4482 32.1781 88.0059 30.9644 89.1212 30.0678C90.2365 29.1711 91.8111 28.5697 93.8449 28.2635L99.0607 27.4763V30.1006L94.5338 30.7894C93.5497 30.9425 92.8062 31.2159 92.3032 31.6095C91.822 32.0032 91.5815 32.5499 91.5815 33.2497C91.5815 33.8839 91.8111 34.376 92.2704 34.7259C92.7296 35.0539 93.3638 35.2179 94.173 35.2179C95.3539 35.2179 96.338 34.9227 97.1253 34.3322C97.9126 33.7418 98.3062 33.0201 98.3062 32.1672L98.7655 34.6931C98.3281 35.8959 97.6064 36.8144 96.6004 37.4486C95.6163 38.0609 94.4026 38.3671 92.9592 38.3671ZM106.298 38.0391V21.3092H110.333V25.2456H110.431V38.0391H106.298ZM117.549 38.0391V27.2466C117.549 26.2625 117.298 25.5408 116.795 25.0816C116.314 24.6005 115.625 24.3599 114.728 24.3599C113.941 24.3599 113.219 24.5458 112.563 24.9176C111.907 25.2893 111.382 25.8142 110.989 26.4921C110.617 27.1701 110.431 27.9574 110.431 28.854L110.005 25.016C110.573 23.7913 111.393 22.8181 112.465 22.0964C113.536 21.3529 114.783 20.9811 116.205 20.9811C117.91 20.9811 119.255 21.4732 120.239 22.4573C121.223 23.4195 121.716 24.6661 121.716 26.1969V38.0391H117.549ZM128.801 38.0391V27.2466C128.801 26.2625 128.561 25.5408 128.079 25.0816C127.598 24.6005 126.909 24.3599 126.013 24.3599C125.204 24.3599 124.471 24.5458 123.815 24.9176C123.159 25.2893 122.645 25.8142 122.273 26.4921C121.901 27.1701 121.716 27.9574 121.716 28.854L120.994 25.016C121.541 23.7913 122.372 22.8181 123.487 22.0964C124.602 21.3529 125.893 20.9811 127.358 20.9811C129.107 20.9811 130.474 21.4841 131.458 22.4901C132.464 23.4742 132.967 24.7864 132.967 26.4265V38.0391H128.801ZM146.397 38.3671C144.801 38.3671 143.5 37.9953 142.494 37.2518C141.51 36.4864 140.897 35.4366 140.657 34.1026L140.985 34.0698V44.7638H136.851V21.3092H140.886V25.0816L140.558 25.016C140.864 23.7694 141.564 22.7853 142.658 22.0636C143.751 21.342 145.085 20.9811 146.66 20.9811C148.147 20.9811 149.437 21.342 150.531 22.0636C151.646 22.7635 152.51 23.7585 153.122 25.0488C153.734 26.3391 154.041 27.859 154.041 29.6085C154.041 31.3799 153.723 32.9217 153.089 34.2338C152.455 35.546 151.569 36.5629 150.432 37.2846C149.295 38.0063 147.95 38.3671 146.397 38.3671ZM145.348 34.9555C146.682 34.9555 147.742 34.4963 148.53 33.5778C149.317 32.6374 149.71 31.3252 149.71 29.6413C149.71 27.9574 149.306 26.6562 148.497 25.7377C147.709 24.8192 146.649 24.3599 145.315 24.3599C144.003 24.3599 142.942 24.8301 142.133 25.7705C141.324 26.689 140.919 27.9902 140.919 29.6741C140.919 31.358 141.324 32.6592 142.133 33.5778C142.942 34.4963 144.014 34.9555 145.348 34.9555ZM156.898 38.0391V14.4204H161.031V38.0391H156.898ZM165.091 38.0391V21.3092H169.224V38.0391H165.091ZM164.894 18.5536V13.9939H169.388V18.5536H164.894Z" fill="url(#paint4_linear_3239_1090)"/>
<path d="M76.7955 38.3343C73.8212 38.3343 71.4484 37.6564 69.677 36.3005C67.9275 34.9227 66.8997 32.9873 66.5935 30.4942H70.694C70.8908 31.9376 71.5359 33.0638 72.6294 33.873C73.7228 34.6603 75.1553 35.0539 76.9267 35.0539C78.3919 35.0539 79.5072 34.7915 80.2726 34.2666C81.0599 33.7199 81.4536 32.9654 81.4536 32.0032C81.4536 31.1503 81.213 30.4614 80.7319 29.9365C80.2508 29.4117 79.4416 28.9852 78.3044 28.6572L74.0399 27.3778C71.8749 26.7218 70.2784 25.8579 69.2506 24.7864C68.2446 23.7148 67.7416 22.3698 67.7416 20.7515C67.7416 19.3956 68.0915 18.2147 68.7913 17.2087C69.4912 16.2027 70.4753 15.4264 71.7437 14.8796C73.034 14.3329 74.532 14.0595 76.2378 14.0595C78.8621 14.0595 80.9506 14.7047 82.5033 15.9949C84.0779 17.2634 84.9745 18.991 85.1932 21.1779H81.0927C80.8522 19.8658 80.3055 18.9035 79.4526 18.2912C78.5997 17.657 77.4515 17.3399 76.0082 17.3399C74.7397 17.3399 73.7338 17.5914 72.9902 18.0944C72.2467 18.5974 71.8749 19.2863 71.8749 20.161C71.8749 20.8827 72.0936 21.495 72.531 21.998C72.9902 22.501 73.8322 22.9384 75.0569 23.3102L79.3869 24.6223C81.552 25.2565 83.1266 26.1204 84.1107 27.2138C85.0948 28.3073 85.5869 29.696 85.5869 31.3799C85.5869 33.6106 84.8105 35.3273 83.2578 36.5301C81.7269 37.7329 79.5728 38.3343 76.7955 38.3343ZM98.7655 38.0391C98.6562 37.6017 98.5687 37.1206 98.5031 36.5957C98.4593 36.0708 98.4375 35.4366 98.4375 34.6931H98.3062V26.7546C98.3062 25.8798 98.0547 25.2237 97.5518 24.7864C97.0706 24.3271 96.3271 24.0975 95.3211 24.0975C94.337 24.0975 93.5497 24.2834 92.9592 24.6551C92.3906 25.005 92.0407 25.519 91.9095 26.1969H87.9403C88.1152 24.6442 88.8588 23.3867 90.1709 22.4245C91.4831 21.4622 93.2435 20.9811 95.4523 20.9811C97.7486 20.9811 99.4872 21.506 100.668 22.5557C101.849 23.5835 102.44 25.1035 102.44 27.1154V34.6931C102.44 35.2179 102.472 35.7537 102.538 36.3005C102.625 36.8472 102.746 37.4267 102.899 38.0391H98.7655ZM92.9592 38.3671C91.2753 38.3671 89.9304 37.9516 88.9244 37.1206C87.9403 36.2677 87.4482 35.1305 87.4482 33.709C87.4482 32.1781 88.0059 30.9644 89.1212 30.0678C90.2365 29.1711 91.8111 28.5697 93.8449 28.2635L99.0607 27.4763V30.1006L94.5338 30.7894C93.5497 30.9425 92.8062 31.2159 92.3032 31.6095C91.822 32.0032 91.5815 32.5499 91.5815 33.2497C91.5815 33.8839 91.8111 34.376 92.2704 34.7259C92.7296 35.0539 93.3638 35.2179 94.173 35.2179C95.3539 35.2179 96.338 34.9227 97.1253 34.3322C97.9126 33.7418 98.3062 33.0201 98.3062 32.1672L98.7655 34.6931C98.3281 35.8959 97.6064 36.8144 96.6004 37.4486C95.6163 38.0609 94.4026 38.3671 92.9592 38.3671ZM106.298 38.0391V21.3092H110.333V25.2456H110.431V38.0391H106.298ZM117.549 38.0391V27.2466C117.549 26.2625 117.298 25.5408 116.795 25.0816C116.314 24.6005 115.625 24.3599 114.728 24.3599C113.941 24.3599 113.219 24.5458 112.563 24.9176C111.907 25.2893 111.382 25.8142 110.989 26.4921C110.617 27.1701 110.431 27.9574 110.431 28.854L110.005 25.016C110.573 23.7913 111.393 22.8181 112.465 22.0964C113.536 21.3529 114.783 20.9811 116.205 20.9811C117.91 20.9811 119.255 21.4732 120.239 22.4573C121.223 23.4195 121.716 24.6661 121.716 26.1969V38.0391H117.549ZM128.801 38.0391V27.2466C128.801 26.2625 128.561 25.5408 128.079 25.0816C127.598 24.6005 126.909 24.3599 126.013 24.3599C125.204 24.3599 124.471 24.5458 123.815 24.9176C123.159 25.2893 122.645 25.8142 122.273 26.4921C121.901 27.1701 121.716 27.9574 121.716 28.854L120.994 25.016C121.541 23.7913 122.372 22.8181 123.487 22.0964C124.602 21.3529 125.893 20.9811 127.358 20.9811C129.107 20.9811 130.474 21.4841 131.458 22.4901C132.464 23.4742 132.967 24.7864 132.967 26.4265V38.0391H128.801ZM146.397 38.3671C144.801 38.3671 143.5 37.9953 142.494 37.2518C141.51 36.4864 140.897 35.4366 140.657 34.1026L140.985 34.0698V44.7638H136.851V21.3092H140.886V25.0816L140.558 25.016C140.864 23.7694 141.564 22.7853 142.658 22.0636C143.751 21.342 145.085 20.9811 146.66 20.9811C148.147 20.9811 149.437 21.342 150.531 22.0636C151.646 22.7635 152.51 23.7585 153.122 25.0488C153.734 26.3391 154.041 27.859 154.041 29.6085C154.041 31.3799 153.723 32.9217 153.089 34.2338C152.455 35.546 151.569 36.5629 150.432 37.2846C149.295 38.0063 147.95 38.3671 146.397 38.3671ZM145.348 34.9555C146.682 34.9555 147.742 34.4963 148.53 33.5778C149.317 32.6374 149.71 31.3252 149.71 29.6413C149.71 27.9574 149.306 26.6562 148.497 25.7377C147.709 24.8192 146.649 24.3599 145.315 24.3599C144.003 24.3599 142.942 24.8301 142.133 25.7705C141.324 26.689 140.919 27.9902 140.919 29.6741C140.919 31.358 141.324 32.6592 142.133 33.5778C142.942 34.4963 144.014 34.9555 145.348 34.9555ZM156.898 38.0391V14.4204H161.031V38.0391H156.898ZM165.091 38.0391V21.3092H169.224V38.0391H165.091ZM164.894 18.5536V13.9939H169.388V18.5536H164.894Z" fill="url(#paint5_radial_3239_1090)"/>
<defs>
<filter id="filter0_d_3239_1090" x="-2.6243" y="-2.63114" width="57.733" height="57.2486" filterUnits="userSpaceOnUse" color-interpolation-filters="sRGB">
<feFlood flood-opacity="0" result="BackgroundImageFix"/>
<feColorMatrix in="SourceAlpha" type="matrix" values="0 0 0 0 0 0 0 0 0 0 0 0 0 0 0 0 0 0 127 0" result="hardAlpha"/>
<feOffset/>
<feGaussianBlur stdDeviation="1.31215"/>
<feComposite in2="hardAlpha" operator="out"/>
<feColorMatrix type="matrix" values="0 0 0 0 0 0 0 0 0 0 0 0 0 0 0 0 0 0 0.04 0"/>
<feBlend mode="normal" in2="BackgroundImageFix" result="effect1_dropShadow_3239_1090"/>
<feBlend mode="normal" in="SourceGraphic" in2="effect1_dropShadow_3239_1090" result="shape"/>
</filter>
<linearGradient id="paint0_linear_3239_1090" x1="26.4084" y1="5.71317" x2="13.1157" y2="46.1141" gradientUnits="userSpaceOnUse">
<stop offset="0.0192796" stop-color="#2E78E9"/>
<stop offset="0.972407" stop-color="#2863FA"/>
</linearGradient>
<radialGradient id="paint1_radial_3239_1090" cx="0" cy="0" r="1" gradientUnits="userSpaceOnUse" gradientTransform="translate(26.0776 47.3132) rotate(-90.1056) scale(59.8001 51.5614)">
<stop stop-color="white" stop-opacity="0"/>
<stop offset="1" stop-color="white" stop-opacity="0.1"/>
</radialGradient>
<linearGradient id="paint2_linear_3239_1090" x1="24.0935" y1="23.689" x2="20.9645" y2="33.1112" gradientUnits="userSpaceOnUse">
<stop offset="0.0192796" stop-color="#2E78E9"/>
<stop offset="0.972407" stop-color="#2863FA"/>
</linearGradient>
<radialGradient id="paint3_radial_3239_1090" cx="0" cy="0" r="1" gradientUnits="userSpaceOnUse" gradientTransform="translate(24.0169 33.4086) rotate(-90.1047) scale(13.972 11.9355)">
<stop stop-color="white" stop-opacity="0"/>
<stop offset="1" stop-color="white" stop-opacity="0.1"/>
</radialGradient>
<linearGradient id="paint4_linear_3239_1090" x1="118.943" y1="8.09906" x2="113.351" y2="46.9013" gradientUnits="userSpaceOnUse">
<stop offset="0.0192796" stop-color="#2E78E9"/>
<stop offset="0.972407" stop-color="#2863FA"/>
</linearGradient>
<radialGradient id="paint5_radial_3239_1090" cx="0" cy="0" r="1" gradientUnits="userSpaceOnUse" gradientTransform="translate(118.275 44.8991) rotate(-90.2412) scale(52.9005 104.132)">
<stop stop-color="white" stop-opacity="0"/>
<stop offset="1" stop-color="white" stop-opacity="0.1"/>
</radialGradient>
<clipPath id="clip0_3239_1090">
<rect width="52.486" height="52" fill="white"/>
</clipPath>
</defs>
</svg>
